{
.appVersion = "116";
copyright = "© 2015-2023 Apple Inc. All rights reserved.";
date = "2016-12-14 19:49:56 +0000";
designer = "Apple Inc.";
designerURL = "http://www.apple.com/";
familyName = "SF Stencil Time";
featurePrefixes = (
{
automatic = 1;
code = "languagesystem DFLT dflt;\012languagesystem arab dflt;\012languagesystem arab URD;\012";
name = Languagesystems;
}
);
features = (
{
automatic = 1;
code = "feature locl;\012";
name = aalt;
},
{
automatic = 1;
code = "script arab;\012language URD;\012sub four-persian by four-persian.urdu;\012sub six-persian by six-ar;\012sub seven-persian by seven-persian.urdu;\012";
name = locl;
}
);
fontMaster = (
{
ascender = 1950;
capHeight = 1443;
descender = -494;
id = "C0C2D967-6C35-4E4E-AAA8-D02C1745AD4B";
weightValue = 400;
widthValue = 5;
xHeight = 1054;
}
);
glyphs = (
{
glyphname = zero;
layers = (
{
layerId = "C0C2D967-6C35-4E4E-AAA8-D02C1745AD4B";
paths = (
{
closed = 1;
nodes = (
"261 548.667 OFFCURVE",
"285.667 414 OFFCURVE",
"335 318 CURVE SMOOTH",
"384.333 222 OFFCURVE",
"452.333 164 OFFCURVE",
"539 144 CURVE SMOOTH",
"560.333 138.667 OFFCURVE",
"571 127.333 OFFCURVE",
"571 110 CURVE SMOOTH",
"571 13 LINE SMOOTH",
"571 1.667 OFFCURVE",
"568 -6.667 OFFCURVE",
"562 -12 CURVE SMOOTH",
"556 -17.333 OFFCURVE",
"545.667 -19 OFFCURVE",
"531 -17 CURVE SMOOTH",
"435.667 -2.333 OFFCURVE",
"354.333 36.333 OFFCURVE",
"287 99 CURVE SMOOTH",
"219.667 161.667 OFFCURVE",
"168.333 245.833 OFFCURVE",
"133 351.5 CURVE SMOOTH",
"97.667 457.167 OFFCURVE",
"80 580.667 OFFCURVE",
"80 722 CURVE SMOOTH",
"80 864 OFFCURVE",
"97.667 987.667 OFFCURVE",
"133 1093 CURVE SMOOTH",
"168.333 1198.333 OFFCURVE",
"219.667 1282.333 OFFCURVE",
"287 1345 CURVE SMOOTH",
"354.333 1407.667 OFFCURVE",
"435.667 1446.333 OFFCURVE",
"531 1461 CURVE SMOOTH",
"545.667 1463 OFFCURVE",
"556 1461.333 OFFCURVE",
"562 1456 CURVE SMOOTH",
"568 1450.667 OFFCURVE",
"571 1442.333 OFFCURVE",
"571 1431 CURVE SMOOTH",
"571 1334 LINE SMOOTH",
"571 1316.667 OFFCURVE",
"560.333 1305.333 OFFCURVE",
"539 1300 CURVE SMOOTH",
"452.333 1280 OFFCURVE",
"384.333 1222 OFFCURVE",
"335 1126 CURVE SMOOTH",
"285.667 1030 OFFCURVE",
"261 895.333 OFFCURVE",
"261 722 CURVE",
"261 722 LINE"
);
},
{
closed = 1;
nodes = (
"961 895.333 OFFCURVE",
"936.333 1029.833 OFFCURVE",
"887 1125.5 CURVE SMOOTH",
"837.667 1221.167 OFFCURVE",
"769.667 1279.333 OFFCURVE",
"683 1300 CURVE SMOOTH",
"661.667 1305.333 OFFCURVE",
"651 1316.667 OFFCURVE",
"651 1334 CURVE SMOOTH",
"651 1431 LINE SMOOTH",
"651 1442.333 OFFCURVE",
"654 1450.667 OFFCURVE",
"660 1456 CURVE SMOOTH",
"666 1461.333 OFFCURVE",
"676.333 1463 OFFCURVE",
"691 1461 CURVE SMOOTH",
"786.333 1447 OFFCURVE",
"867.667 1408.5 OFFCURVE",
"935 1345.5 CURVE SMOOTH",
"1002.333 1282.5 OFFCURVE",
"1053.667 1198.333 OFFCURVE",
"1089 1093 CURVE SMOOTH",
"1124.333 987.667 OFFCURVE",
"1142 864 OFFCURVE",
"1142 722 CURVE SMOOTH",
"1142 580.667 OFFCURVE",
"1124.333 457.167 OFFCURVE",
"1089 351.5 CURVE SMOOTH",
"1053.667 245.833 OFFCURVE",
"1002.333 161.667 OFFCURVE",
"935 99 CURVE SMOOTH",
"867.667 36.333 OFFCURVE",
"786.333 -2.333 OFFCURVE",
"691 -17 CURVE SMOOTH",
"676.333 -19 OFFCURVE",
"666 -17.333 OFFCURVE",
"660 -12 CURVE SMOOTH",
"654 -6.667 OFFCURVE",
"651 1.667 OFFCURVE",
"651 13 CURVE SMOOTH",
"651 110 LINE SMOOTH",
"651 127.333 OFFCURVE",
"661.667 138.667 OFFCURVE",
"683 144 CURVE SMOOTH",
"769.667 164.667 OFFCURVE",
"837.667 222.833 OFFCURVE",
"887 318.5 CURVE SMOOTH",
"936.333 414.167 OFFCURVE",
"961 548.667 OFFCURVE",
"961 722 CURVE",
"961 722 LINE"
);
}
);
width = 1222;
}
);
note = zero;
unicode = 0030;
},
{
glyphname = one;
layers = (
{
layerId = "C0C2D967-6C35-4E4E-AAA8-D02C1745AD4B";
paths = (
{
closed = 1;
nodes = (
"447 0 OFFCURVE",
"436 11 OFFCURVE",
"436 33 CURVE SMOOTH",
"436 1410 LINE SMOOTH",
"436 1432 OFFCURVE",
"446.667 1443 OFFCURVE",
"468 1443 CURVE SMOOTH",
"577 1443 LINE SMOOTH",
"599 1443 OFFCURVE",
"610 1432 OFFCURVE",
"610 1410 CURVE SMOOTH",
"610 33 LINE SMOOTH",
"610 11 OFFCURVE",
"599.333 0 OFFCURVE",
"578 0 CURVE SMOOTH",
"469 0 LINE",
"469 0 LINE SMOOTH"
);
},
{
closed = 1;
nodes = (
"85 1005.333 OFFCURVE",
"75 1003.833 OFFCURVE",
"65 1007.5 CURVE SMOOTH",
"55 1011.167 OFFCURVE",
"50 1019 OFFCURVE",
"50 1031 CURVE SMOOTH",
"50 1128 LINE SMOOTH",
"50 1154.667 OFFCURVE",
"60 1175.333 OFFCURVE",
"80 1190 CURVE SMOOTH",
"320 1363 LINE SMOOTH",
"330 1370.333 OFFCURVE",
"339.167 1371.667 OFFCURVE",
"347.5 1367 CURVE SMOOTH",
"355.833 1362.333 OFFCURVE",
"360 1354.333 OFFCURVE",
"360 1343 CURVE SMOOTH",
"360 1239 LINE SMOOTH",
"360 1223.667 OFFCURVE",
"357.833 1212 OFFCURVE",
"353.5 1204 CURVE SMOOTH",
"349.167 1196 OFFCURVE",
"340.333 1187.333 OFFCURVE",
"327 1178 CURVE SMOOTH",
"95 1012 LINE",
"95 1012 LINE"
);
}
);
width = 755;
}
);
note = one;
unicode = 0031;
},
{
glyphname = two;
layers = (
{
layerId = "C0C2D967-6C35-4E4E-AAA8-D02C1745AD4B";
paths = (
{
closed = 1;
nodes = (
"434.333 1286.667 OFFCURVE",
"381.833 1259 OFFCURVE",
"339.5 1217 CURVE SMOOTH",
"297.167 1175 OFFCURVE",
"272.333 1124.667 OFFCURVE",
"265 1066 CURVE SMOOTH",
"263 1050 OFFCURVE",
"259 1039.333 OFFCURVE",
"253 1034 CURVE SMOOTH",
"247 1028.667 OFFCURVE",
"239.667 1026 OFFCURVE",
"231 1026 CURVE SMOOTH",
"120 1026 LINE SMOOTH",
"110 1026 OFFCURVE",
"102.333 1028.667 OFFCURVE",
"97 1034 CURVE SMOOTH",
"91.667 1039.333 OFFCURVE",
"89.333 1049.333 OFFCURVE",
"90 1064 CURVE",
"96 1133.333 OFFCURVE",
"117 1195.833 OFFCURVE",
"153 1251.5 CURVE SMOOTH",
"189 1307.167 OFFCURVE",
"236.167 1353.333 OFFCURVE",
"294.5 1390 CURVE SMOOTH",
"352.833 1426.667 OFFCURVE",
"417.667 1450.333 OFFCURVE",
"489 1461 CURVE SMOOTH",
"515.667 1465 OFFCURVE",
"529 1455 OFFCURVE",
"529 1431 CURVE SMOOTH",
"529 1334 LINE SMOOTH",
"529 1315.333 OFFCURVE",
"518.333 1304 OFFCURVE",
"497 1300 CURVE",
"497 1300 LINE"
);
},
{
closed = 1;
nodes = (
"185 0 LINE",
"132 0 LINE SMOOTH",
"110 0 OFFCURVE",
"99 11 OFFCURVE",
"99 33 CURVE SMOOTH",
"99 88 LINE SMOOTH",
"99 101.333 OFFCURVE",
"100.667 112.333 OFFCURVE",
"104 121 CURVE SMOOTH",
"107.333 129.667 OFFCURVE",
"115 140.333 OFFCURVE",
"127 153 CURVE SMOOTH",
"607 654 LINE SMOOTH",
"672.333 722 OFFCURVE",
"722.167 778.167 OFFCURVE",
"756.5 822.5 CURVE SMOOTH",
"790.833 866.833 OFFCURVE",
"814.5 906.333 OFFCURVE",
"827.5 941 CURVE SMOOTH",
"840.5 975.667 OFFCURVE",
"847 1012.333 OFFCURVE",
"847 1051 CURVE SMOOTH",
"847 1094.333 OFFCURVE",
"838.167 1133 OFFCURVE",
"820.5 1167 CURVE SMOOTH",
"802.833 1201 OFFCURVE",
"778.667 1229.333 OFFCURVE",
"748 1252 CURVE SMOOTH",
"717.333 1274.667 OFFCURVE",
"681.333 1290.667 OFFCURVE",
"640 1300 CURVE SMOOTH",
"619.333 1304 OFFCURVE",
"609 1315.333 OFFCURVE",
"609 1334 CURVE SMOOTH",
"609 1431 LINE SMOOTH",
"609 1454.333 OFFCURVE",
"622.333 1464.667 OFFCURVE",
"649 1462 CURVE SMOOTH",
"724.333 1454 OFFCURVE",
"790.333 1431.333 OFFCURVE",
"847 1394 CURVE SMOOTH",
"903.667 1356.667 OFFCURVE",
"947.833 1309.167 OFFCURVE",
"979.5 1251.5 CURVE SMOOTH",
"1011.167 1193.833 OFFCURVE",
"1027 1130.333 OFFCURVE",
"1027 1061 CURVE SMOOTH",
"1027 1009.667 OFFCURVE",
"1018.667 959.833 OFFCURVE",
"1002 911.5 CURVE SMOOTH",
"985.333 863.167 OFFCURVE",
"955.333 809.667 OFFCURVE",
"912 751 CURVE SMOOTH",
"868.667 692.333 OFFCURVE",
"806.667 621 OFFCURVE",
"726 537 CURVE SMOOTH",
"224 15 LINE SMOOTH",
"219.333 10.333 OFFCURVE",
"213.833 6.667 OFFCURVE",
"207.5 4 CURVE SMOOTH",
"201.167 1.333 OFFCURVE",
"193.667 0 OFFCURVE",
"185 0 CURVE SMOOTH"
);
},
{
closed = 1;
nodes = (
"373.333 0 OFFCURVE",
"365.5 2 OFFCURVE",
"360.5 6 CURVE SMOOTH",
"355.5 10 OFFCURVE",
"353 15.667 OFFCURVE",
"353 23 CURVE SMOOTH",
"353 31.667 OFFCURVE",
"357 40 OFFCURVE",
"365 48 CURVE SMOOTH",
"458 145 LINE SMOOTH",
"468 155 OFFCURVE",
"481.333 160 OFFCURVE",
"498 160 CURVE SMOOTH",
"1019 160 LINE SMOOTH",
"1040.333 160 OFFCURVE",
"1051 149.333 OFFCURVE",
"1051 128 CURVE SMOOTH",
"1051 33 LINE SMOOTH",
"1051 11 OFFCURVE",
"1040.333 0 OFFCURVE",
"1019 0 CURVE SMOOTH",
"384 0 LINE",
"384 0 LINE SMOOTH"
);
}
);
width = 1121;
}
);
note = two;
unicode = 0032;
},
{
glyphname = three;
layers = (
{
layerId = "C0C2D967-6C35-4E4E-AAA8-D02C1745AD4B";
paths = (
{
closed = 1;
nodes = (
"139.333 1065 OFFCURVE",
"131.5 1067.333 OFFCURVE",
"124.5 1072 CURVE SMOOTH",
"117.5 1076.667 OFFCURVE",
"114.667 1085.333 OFFCURVE",
"116 1098 CURVE",
"126 1164 OFFCURVE",
"148.333 1222.667 OFFCURVE",
"183 1274 CURVE SMOOTH",
"217.667 1325.333 OFFCURVE",
"262.833 1367.167 OFFCURVE",
"318.5 1399.5 CURVE SMOOTH",
"374.167 1431.833 OFFCURVE",
"438 1452.667 OFFCURVE",
"510 1462 CURVE SMOOTH",
"524.667 1464 OFFCURVE",
"535 1462.333 OFFCURVE",
"541 1457 CURVE SMOOTH",
"547 1451.667 OFFCURVE",
"550 1443.333 OFFCURVE",
"550 1432 CURVE SMOOTH",
"550 1337 LINE SMOOTH",
"550 1317.667 OFFCURVE",
"539.667 1306.333 OFFCURVE",
"519 1303 CURVE SMOOTH",
"457.667 1292.333 OFFCURVE",
"406.5 1269.333 OFFCURVE",
"365.5 1234 CURVE SMOOTH",
"324.5 1198.667 OFFCURVE",
"299 1153.333 OFFCURVE",
"289 1098 CURVE SMOOTH",
"284.333 1076 OFFCURVE",
"272.667 1065 OFFCURVE",
"254 1065 CURVE SMOOTH",
"148 1065 LINE",
"148 1065 LINE SMOOTH"
);
},
{
closed = 1;
nodes = (
"430 -9.667 OFFCURVE",
"359.833 11.667 OFFCURVE",
"299.5 45 CURVE SMOOTH",
"239.167 78.333 OFFCURVE",
"190.667 120.833 OFFCURVE",
"154 172.5 CURVE SMOOTH",
"117.333 224.167 OFFCURVE",
"94.667 282.333 OFFCURVE",
"86 347 CURVE SMOOTH",
"84 361 OFFCURVE",
"86.333 370.333 OFFCURVE",
"93 375 CURVE SMOOTH",
"99.667 379.667 OFFCURVE",
"107.333 382 OFFCURVE",
"116 382 CURVE SMOOTH",
"225 382 LINE SMOOTH",
"244.333 382 OFFCURVE",
"256 371.333 OFFCURVE",
"260 350 CURVE SMOOTH",
"267.333 313.333 OFFCURVE",
"282.5 280.333 OFFCURVE",
"305.5 251 CURVE SMOOTH",
"328.5 221.667 OFFCURVE",
"358 197.333 OFFCURVE",
"394 178 CURVE SMOOTH",
"430 158.667 OFFCURVE",
"471.333 145.333 OFFCURVE",
"518 138 CURVE SMOOTH",
"530 136 OFFCURVE",
"538.333 132.333 OFFCURVE",
"543 127 CURVE SMOOTH",
"547.667 121.667 OFFCURVE",
"550 114.667 OFFCURVE",
"550 106 CURVE SMOOTH",
"550 11 LINE SMOOTH",
"550 -0.333 OFFCURVE",
"547 -8.5 OFFCURVE",
"541 -13.5 CURVE SMOOTH",
"535 -18.5 OFFCURVE",
"524.667 -20.333 OFFCURVE",
"510 -19 CURVE",
"510 -19 LINE"
);
},
{
closed = 1;
nodes = (
"655.333 -21.333 OFFCURVE",
"645 -19.333 OFFCURVE",
"639 -14 CURVE SMOOTH",
"633 -8.667 OFFCURVE",
"630 -0.333 OFFCURVE",
"630 11 CURVE SMOOTH",
"630 106 LINE SMOOTH",
"630 114.667 OFFCURVE",
"632.167 122.167 OFFCURVE",
"636.5 128.5 CURVE SMOOTH",
"640.833 134.833 OFFCURVE",
"648.667 138.667 OFFCURVE",
"660 140 CURVE SMOOTH",
"711.333 147.333 OFFCURVE",
"755.833 162.167 OFFCURVE",
"793.5 184.5 CURVE SMOOTH",
"831.167 206.833 OFFCURVE",
"860.5 235.833 OFFCURVE",
"881.5 271.5 CURVE SMOOTH",
"902.5 307.167 OFFCURVE",
"913 348.667 OFFCURVE",
"913 396 CURVE SMOOTH",
"913 481.333 OFFCURVE",
"883.5 548.167 OFFCURVE",
"824.5 596.5 CURVE SMOOTH",
"765.5 644.833 OFFCURVE",
"685.333 669 OFFCURVE",
"584 669 CURVE SMOOTH",
"436 669 LINE SMOOTH",
"414 669 OFFCURVE",
"403 680 OFFCURVE",
"403 702 CURVE SMOOTH",
"403 789 LINE SMOOTH",
"403 810.333 OFFCURVE",
"414 821 OFFCURVE",
"436 821 CURVE SMOOTH",
"576 821 LINE SMOOTH",
"633.333 821 OFFCURVE",
"684 832 OFFCURVE",
"728 854 CURVE SMOOTH",
"772 876 OFFCURVE",
"806.333 906.5 OFFCURVE",
"831 945.5 CURVE SMOOTH",
"855.667 984.5 OFFCURVE",
"868 1029.333 OFFCURVE",
"868 1080 CURVE SMOOTH",
"868 1121.333 OFFCURVE",
"859.833 1157.333 OFFCURVE",
"843.5 1188 CURVE SMOOTH",
"827.167 1218.667 OFFCURVE",
"803.5 1243.667 OFFCURVE",
"772.5 1263 CURVE SMOOTH",
"741.5 1282.333 OFFCURVE",
"704 1295.667 OFFCURVE",
"660 1303 CURVE SMOOTH",
"640 1306.333 OFFCURVE",
"630 1317.667 OFFCURVE",
"630 1337 CURVE SMOOTH",
"630 1432 LINE SMOOTH",
"630 1443.333 OFFCURVE",
"633 1451.667 OFFCURVE",
"639 1457 CURVE SMOOTH",
"645 1462.333 OFFCURVE",
"655.333 1464.333 OFFCURVE",
"670 1463 CURVE SMOOTH",
"747.333 1454.333 OFFCURVE",
"814.333 1433.5 OFFCURVE",
"871 1400.5 CURVE SMOOTH",
"927.667 1367.5 OFFCURVE",
"971.5 1324.833 OFFCURVE",
"1002.5 1272.5 CURVE SMOOTH",
"1033.5 1220.167 OFFCURVE",
"1049 1161 OFFCURVE",
"1049 1095 CURVE SMOOTH",
"1049 1022.333 OFFCURVE",
"1031 959.167 OFFCURVE",
"995 905.5 CURVE SMOOTH",
"959 851.833 OFFCURVE",
"910.333 809 OFFCURVE",
"849 777 CURVE SMOOTH",
"840.333 772.333 OFFCURVE",
"836 766.833 OFFCURVE",
"836 760.5 CURVE SMOOTH",
"836 754.167 OFFCURVE",
"840 749.333 OFFCURVE",
"848 746 CURVE SMOOTH",
"923.333 715.333 OFFCURVE",
"983.5 669 OFFCURVE",
"1028.5 607 CURVE SMOOTH",
"1073.5 545 OFFCURVE",
"1096 474.333 OFFCURVE",
"1096 395 CURVE SMOOTH",
"1096 322.333 OFFCURVE",
"1077.833 256.333 OFFCURVE",
"1041.5 197 CURVE SMOOTH",
"1005.167 137.667 OFFCURVE",
"955 89 OFFCURVE",
"891 51 CURVE SMOOTH",
"827 13 OFFCURVE",
"753.333 -10.667 OFFCURVE",
"670 -20 CURVE",
"670 -20 LINE"
);
}
);
width = 1171;
}
);
note = three;
unicode = 0033;
},
{
glyphname = four;
layers = (
{
layerId = "C0C2D967-6C35-4E4E-AAA8-D02C1745AD4B";
paths = (
{
closed = 1;
nodes = (
"61 300 OFFCURVE",
"50 311 OFFCURVE",
"50 333 CURVE SMOOTH",
"50 443 LINE SMOOTH",
"50 461 OFFCURVE",
"55 477.667 OFFCURVE",
"65 493 CURVE SMOOTH",
"638 1414 LINE SMOOTH",
"643.333 1422.667 OFFCURVE",
"648.333 1429 OFFCURVE",
"653 1433 CURVE SMOOTH",
"657.667 1437 OFFCURVE",
"663.333 1439 OFFCURVE",
"670 1439 CURVE SMOOTH",
"686.667 1439 OFFCURVE",
"695 1428.333 OFFCURVE",
"695 1407 CURVE SMOOTH",
"695 1251 LINE SMOOTH",
"695 1232.333 OFFCURVE",
"693.167 1217.167 OFFCURVE",
"689.5 1205.5 CURVE SMOOTH",
"685.833 1193.833 OFFCURVE",
"679.333 1181 OFFCURVE",
"670 1167 CURVE SMOOTH",
"246 488 LINE SMOOTH",
"240 478.667 OFFCURVE",
"238.333 471.333 OFFCURVE",
"241 466 CURVE SMOOTH",
"243.667 460.667 OFFCURVE",
"249.667 458 OFFCURVE",
"259 458 CURVE SMOOTH",
"663 458 LINE SMOOTH",
"684.333 458 OFFCURVE",
"695 447.333 OFFCURVE",
"695 426 CURVE SMOOTH",
"695 333 LINE SMOOTH",
"695 311 OFFCURVE",
"684.333 300 OFFCURVE",
"663 300 CURVE SMOOTH",
"83 300 LINE",
"83 300 LINE SMOOTH"
);
},
{
closed = 1;
nodes = (
"786 0 OFFCURVE",
"775 11 OFFCURVE",
"775 33 CURVE SMOOTH",
"775 1410 LINE SMOOTH",
"775 1432 OFFCURVE",
"785.667 1443 OFFCURVE",
"807 1443 CURVE SMOOTH",
"916 1443 LINE SMOOTH",
"938 1443 OFFCURVE",
"949 1432 OFFCURVE",
"949 1410 CURVE SMOOTH",
"949 486 LINE SMOOTH",
"949 467.333 OFFCURVE",
"958.333 458 OFFCURVE",
"977 458 CURVE SMOOTH",
"1121 458 LINE SMOOTH",
"1142.333 458 OFFCURVE",
"1153 447.333 OFFCURVE",
"1153 426 CURVE SMOOTH",
"1153 333 LINE SMOOTH",
"1153 311 OFFCURVE",
"1142.333 300 OFFCURVE",
"1121 300 CURVE SMOOTH",
"977 300 LINE SMOOTH",
"958.333 300 OFFCURVE",
"949 290.667 OFFCURVE",
"949 272 CURVE SMOOTH",
"949 33 LINE SMOOTH",
"949 11 OFFCURVE",
"938.333 0 OFFCURVE",
"917 0 CURVE SMOOTH",
"808 0 LINE",
"808 0 LINE SMOOTH"
);
}
);
width = 1183;
}
);
note = four;
unicode = 0034;
},
{
glyphname = five;
layers = (
{
layerId = "C0C2D967-6C35-4E4E-AAA8-D02C1745AD4B";
paths = (
{
closed = 1;
nodes = (
"417.667 1283 OFFCURVE",
"407 1294 OFFCURVE",
"409 1316 CURVE SMOOTH",
"418 1412 LINE SMOOTH",
"420 1432.667 OFFCURVE",
"431.333 1443 OFFCURVE",
"452 1443 CURVE SMOOTH",
"979 1443 LINE SMOOTH",
"1000.333 1443 OFFCURVE",
"1011 1432.333 OFFCURVE",
"1011 1411 CURVE SMOOTH",
"1011 1316 LINE SMOOTH",
"1011 1294 OFFCURVE",
"1000.333 1283 OFFCURVE",
"979 1283 CURVE SMOOTH",
"441 1283 LINE",
"441 1283 LINE SMOOTH"
);
},
{
closed = 1;
nodes = (
"703.667 149.333 OFFCURVE",
"749.667 168.833 OFFCURVE",
"789 198.5 CURVE SMOOTH",
"828.333 228.167 OFFCURVE",
"858.833 265.833 OFFCURVE",
"880.5 311.5 CURVE SMOOTH",
"902.167 357.167 OFFCURVE",
"913 408.667 OFFCURVE",
"913 466 CURVE SMOOTH",
"913 529.333 OFFCURVE",
"898.833 585.5 OFFCURVE",
"870.5 634.5 CURVE SMOOTH",
"842.167 683.5 OFFCURVE",
"803.333 722 OFFCURVE",
"754 750 CURVE SMOOTH",
"704.667 778 OFFCURVE",
"648 792 OFFCURVE",
"584 792 CURVE SMOOTH",
"522.667 792 OFFCURVE",
"466.5 780.5 OFFCURVE",
"415.5 757.5 CURVE SMOOTH",
"364.5 734.5 OFFCURVE",
"321 696.333 OFFCURVE",
"285 643 CURVE SMOOTH",
"281 637 OFFCURVE",
"276.333 631.667 OFFCURVE",
"271 627 CURVE SMOOTH",
"265.667 622.333 OFFCURVE",
"258 620 OFFCURVE",
"248 620 CURVE SMOOTH",
"144 620 LINE SMOOTH",
"122 620 OFFCURVE",
"112 631.667 OFFCURVE",
"114 655 CURVE SMOOTH",
"184 1409 LINE SMOOTH",
"185.333 1419.667 OFFCURVE",
"189.167 1428 OFFCURVE",
"195.5 1434 CURVE SMOOTH",
"201.833 1440 OFFCURVE",
"211.333 1443 OFFCURVE",
"224 1443 CURVE SMOOTH",
"306 1443 LINE SMOOTH",
"319.333 1443 OFFCURVE",
"328.333 1439.667 OFFCURVE",
"333 1433 CURVE SMOOTH",
"337.667 1426.333 OFFCURVE",
"339.333 1416.667 OFFCURVE",
"338 1404 CURVE SMOOTH",
"289 863 LINE SMOOTH",
"288.333 853.667 OFFCURVE",
"291 847.667 OFFCURVE",
"297 845 CURVE SMOOTH",
"303 842.333 OFFCURVE",
"310 844 OFFCURVE",
"318 850 CURVE SMOOTH",
"358.667 880.667 OFFCURVE",
"403.667 904.5 OFFCURVE",
"453 921.5 CURVE SMOOTH",
"502.333 938.5 OFFCURVE",
"555.333 947 OFFCURVE",
"612 947 CURVE SMOOTH",
"706 947 OFFCURVE",
"789.167 926.333 OFFCURVE",
"861.5 885 CURVE SMOOTH",
"933.833 843.667 OFFCURVE",
"990.5 787.167 OFFCURVE",
"1031.5 715.5 CURVE SMOOTH",
"1072.5 643.833 OFFCURVE",
"1093 561.667 OFFCURVE",
"1093 469 CURVE SMOOTH",
"1093 381 OFFCURVE",
"1074.833 302.333 OFFCURVE",
"1038.5 233 CURVE SMOOTH",
"1002.167 163.667 OFFCURVE",
"951.5 107.167 OFFCURVE",
"886.5 63.5 CURVE SMOOTH",
"821.5 19.833 OFFCURVE",
"746.333 -7.667 OFFCURVE",
"661 -19 CURVE SMOOTH",
"646.333 -21 OFFCURVE",
"636 -19.167 OFFCURVE",
"630 -13.5 CURVE SMOOTH",
"624 -7.833 OFFCURVE",
"621 0.667 OFFCURVE",
"621 12 CURVE SMOOTH",
"621 106 LINE SMOOTH",
"621 114.667 OFFCURVE",
"623.167 122 OFFCURVE",
"627.5 128 CURVE SMOOTH",
"631.833 134 OFFCURVE",
"639.667 138 OFFCURVE",
"651 140 CURVE",
"651 140 LINE"
);
},
{
closed = 1;
nodes = (
"521 139 OFFCURVE",
"529.333 135.333 OFFCURVE",
"534 130 CURVE SMOOTH",
"538.667 124.667 OFFCURVE",
"541 117.667 OFFCURVE",
"541 109 CURVE SMOOTH",
"541 11 LINE SMOOTH",
"541 -0.333 OFFCURVE",
"538 -8.667 OFFCURVE",
"532 -14 CURVE SMOOTH",
"526 -19.333 OFFCURVE",
"515.667 -21 OFFCURVE",
"501 -19 CURVE SMOOTH",
"426.333 -9.667 OFFCURVE",
"359.667 12 OFFCURVE",
"301 46 CURVE SMOOTH",
"242.333 80 OFFCURVE",
"194.667 123.667 OFFCURVE",
"158 177 CURVE SMOOTH",
"121.333 230.333 OFFCURVE",
"98 290.333 OFFCURVE",
"88 357 CURVE SMOOTH",
"84.667 381.667 OFFCURVE",
"94.333 394 OFFCURVE",
"117 394 CURVE SMOOTH",
"231 394 LINE SMOOTH",
"238.333 394 OFFCURVE",
"245.333 392.667 OFFCURVE",
"252 390 CURVE SMOOTH",
"258.667 387.333 OFFCURVE",
"263 380.333 OFFCURVE",
"265 369 CURVE SMOOTH",
"276.333 312.333 OFFCURVE",
"303.667 263.167 OFFCURVE",
"347 221.5 CURVE SMOOTH",
"390.333 179.833 OFFCURVE",
"444.333 153 OFFCURVE",
"509 141 CURVE",
"509 141 LINE"
);
}
);
width = 1153;
}
);
note = five;
unicode = 0035;
},
{
glyphname = six;
layers = (
{
layerId = "C0C2D967-6C35-4E4E-AAA8-D02C1745AD4B";
paths = (
{
closed = 1;
nodes = (
"805 1453.333 OFFCURVE",
"891.667 1418.833 OFFCURVE",
"963 1360.5 CURVE SMOOTH",
"1034.333 1302.167 OFFCURVE",
"1082.333 1226 OFFCURVE",
"1107 1132 CURVE SMOOTH",
"1110.333 1119.333 OFFCURVE",
"1108.5 1109.833 OFFCURVE",
"1101.5 1103.5 CURVE SMOOTH",
"1094.5 1097.167 OFFCURVE",
"1086.333 1094 OFFCURVE",
"1077 1094 CURVE SMOOTH",
"968 1094 LINE SMOOTH",
"946 1094 OFFCURVE",
"930 1106.667 OFFCURVE",
"920 1132 CURVE SMOOTH",
"901.333 1179.333 OFFCURVE",
"873.333 1218.333 OFFCURVE",
"836 1249 CURVE SMOOTH",
"798.667 1279.667 OFFCURVE",
"753.333 1298 OFFCURVE",
"700 1304 CURVE SMOOTH",
"686 1305.333 OFFCURVE",
"677.5 1308.667 OFFCURVE",
"674.5 1314 CURVE SMOOTH",
"671.5 1319.333 OFFCURVE",
"670 1329 OFFCURVE",
"670 1343 CURVE SMOOTH",
"670 1432 LINE SMOOTH",
"670 1455.333 OFFCURVE",
"681 1466 OFFCURVE",
"703 1464 CURVE",
"703 1464 LINE"
);
},
{
closed = 1;
nodes = (
"572 1465.333 OFFCURVE",
"582 1455.667 OFFCURVE",
"582 1433 CURVE SMOOTH",
"582 1336 LINE SMOOTH",
"582 1316 OFFCURVE",
"570.667 1303.333 OFFCURVE",
"548 1298 CURVE SMOOTH",
"485.333 1283.333 OFFCURVE",
"433.333 1251.333 OFFCURVE",
"392 1202 CURVE SMOOTH",
"350.667 1152.667 OFFCURVE",
"319.167 1091.667 OFFCURVE",
"297.5 1019 CURVE SMOOTH",
"275.833 946.333 OFFCURVE",
"262.333 867 OFFCURVE",
"257 781 CURVE SMOOTH",
"256.333 769.667 OFFCURVE",
"259.667 763 OFFCURVE",
"267 761 CURVE SMOOTH",
"274.333 759 OFFCURVE",
"281.333 762.333 OFFCURVE",
"288 771 CURVE SMOOTH",
"314 807 OFFCURVE",
"345.833 838 OFFCURVE",
"383.5 864 CURVE SMOOTH",
"421.167 890 OFFCURVE",
"463.333 910 OFFCURVE",
"510 924 CURVE SMOOTH",
"556.667 938 OFFCURVE",
"606.667 945 OFFCURVE",
"660 945 CURVE SMOOTH",
"751.333 945 OFFCURVE",
"833.167 924.333 OFFCURVE",
"905.5 883 CURVE SMOOTH",
"977.833 841.667 OFFCURVE",
"1034.833 785.167 OFFCURVE",
"1076.5 713.5 CURVE SMOOTH",
"1118.167 641.833 OFFCURVE",
"1139 560.667 OFFCURVE",
"1139 470 CURVE SMOOTH",
"1139 382.667 OFFCURVE",
"1120.333 304 OFFCURVE",
"1083 234 CURVE SMOOTH",
"1045.667 164 OFFCURVE",
"994.167 106.833 OFFCURVE",
"928.5 62.5 CURVE SMOOTH",
"862.833 18.167 OFFCURVE",
"787 -9.667 OFFCURVE",
"701 -21 CURVE SMOOTH",
"680.333 -23.667 OFFCURVE",
"670 -15 OFFCURVE",
"670 5 CURVE SMOOTH",
"670 103 LINE SMOOTH",
"670 125.667 OFFCURVE",
"679.333 139 OFFCURVE",
"698 143 CURVE SMOOTH",
"748 153.667 OFFCURVE",
"792.5 174.167 OFFCURVE",
"831.5 204.5 CURVE SMOOTH",
"870.5 234.833 OFFCURVE",
"901 272.333 OFFCURVE",
"923 317 CURVE SMOOTH",
"945 361.667 OFFCURVE",
"956 410.667 OFFCURVE",
"956 464 CURVE SMOOTH",
"956 526 OFFCURVE",
"942 581.333 OFFCURVE",
"914 630 CURVE SMOOTH",
"886 678.667 OFFCURVE",
"847.333 717 OFFCURVE",
"798 745 CURVE SMOOTH",
"748.667 773 OFFCURVE",
"691.333 787 OFFCURVE",
"626 787 CURVE SMOOTH",
"564 787 OFFCURVE",
"508.167 773.167 OFFCURVE",
"458.5 745.5 CURVE SMOOTH",
"408.833 717.833 OFFCURVE",
"369.5 680.167 OFFCURVE",
"340.5 632.5 CURVE SMOOTH",
"311.5 584.833 OFFCURVE",
"297 531 OFFCURVE",
"297 471 CURVE SMOOTH",
"297 417 OFFCURVE",
"307.833 367 OFFCURVE",
"329.5 321 CURVE SMOOTH",
"351.167 275 OFFCURVE",
"381.167 236.333 OFFCURVE",
"419.5 205 CURVE SMOOTH",
"457.833 173.667 OFFCURVE",
"501.333 152.667 OFFCURVE",
"550 142 CURVE SMOOTH",
"571.333 137.333 OFFCURVE",
"582 125.333 OFFCURVE",
"582 106 CURVE SMOOTH",
"582 5 LINE SMOOTH",
"582 -14.333 OFFCURVE",
"572.333 -23 OFFCURVE",
"553 -21 CURVE SMOOTH",
"469 -10.333 OFFCURVE",
"395.5 18.333 OFFCURVE",
"332.5 65 CURVE SMOOTH",
"269.5 111.667 OFFCURVE",
"219.333 169.333 OFFCURVE",
"182 238 CURVE SMOOTH",
"145.333 303.333 OFFCURVE",
"119.167 373.667 OFFCURVE",
"103.5 449 CURVE SMOOTH",
"87.833 524.333 OFFCURVE",
"80 606.667 OFFCURVE",
"80 696 CURVE SMOOTH",
"80 844.667 OFFCURVE",
"98.5 973.667 OFFCURVE",
"135.5 1083 CURVE SMOOTH",
"172.5 1192.333 OFFCURVE",
"226.333 1279.333 OFFCURVE",
"297 1344 CURVE SMOOTH",
"367.667 1408.667 OFFCURVE",
"452.667 1448 OFFCURVE",
"552 1462 CURVE",
"552 1462 LINE"
);
}
);
width = 1214;
}
);
note = six;
unicode = 0036;
},
{
glyphname = seven;
layers = (
{
layerId = "C0C2D967-6C35-4E4E-AAA8-D02C1745AD4B";
paths = (
{
closed = 1;
nodes = (
"66 1283 OFFCURVE",
"55 1294 OFFCURVE",
"55 1316 CURVE SMOOTH",
"55 1411 LINE SMOOTH",
"55 1432.333 OFFCURVE",
"66 1443 OFFCURVE",
"88 1443 CURVE SMOOTH",
"795 1443 LINE SMOOTH",
"806.333 1443 OFFCURVE",
"814.167 1439.5 OFFCURVE",
"818.5 1432.5 CURVE SMOOTH",
"822.833 1425.5 OFFCURVE",
"822 1416.333 OFFCURVE",
"816 1405 CURVE SMOOTH",
"769 1313 LINE SMOOTH",
"759 1293 OFFCURVE",
"744.333 1283 OFFCURVE",
"725 1283 CURVE SMOOTH",
"88 1283 LINE",
"88 1283 LINE SMOOTH"
);
},
{
closed = 1;
nodes = (
"208.333 0 OFFCURVE",
"200.167 3.833 OFFCURVE",
"196.5 11.5 CURVE SMOOTH",
"192.833 19.167 OFFCURVE",
"193.333 28 OFFCURVE",
"198 38 CURVE",
"906 1425 LINE",
"912.667 1437 OFFCURVE",
"924 1443 OFFCURVE",
"940 1443 CURVE SMOOTH",
"978 1443 LINE SMOOTH",
"999.333 1443 OFFCURVE",
"1010 1432.333 OFFCURVE",
"1010 1411 CURVE SMOOTH",
"1010 1305 LINE SMOOTH",
"1010 1295 OFFCURVE",
"1008.5 1285 OFFCURVE",
"1005.5 1275 CURVE SMOOTH",
"1002.5 1265 OFFCURVE",
"997.333 1252.333 OFFCURVE",
"990 1237 CURVE SMOOTH",
"383 30 LINE SMOOTH",
"373 10 OFFCURVE",
"358 0 OFFCURVE",
"338 0 CURVE SMOOTH",
"221 0 LINE",
"221 0 LINE SMOOTH"
);
}
);
width = 1045;
}
);
note = seven;
unicode = 0037;
},
{
glyphname = eight;
layers = (
{
layerId = "C0C2D967-6C35-4E4E-AAA8-D02C1745AD4B";
paths = (
{
closed = 1;
nodes = (
"430.667 -10.667 OFFCURVE",
"353.667 12.5 OFFCURVE",
"287 49.5 CURVE SMOOTH",
"220.333 86.5 OFFCURVE",
"168.333 134.333 OFFCURVE",
"131 193 CURVE SMOOTH",
"93.667 251.667 OFFCURVE",
"75 318 OFFCURVE",
"75 392 CURVE SMOOTH",
"75 472.667 OFFCURVE",
"96.5 543.5 OFFCURVE",
"139.5 604.5 CURVE SMOOTH",
"182.5 665.5 OFFCURVE",
"240.333 713.333 OFFCURVE",
"313 748 CURVE SMOOTH",
"320.333 751.333 OFFCURVE",
"323.833 756.333 OFFCURVE",
"323.5 763 CURVE SMOOTH",
"323.167 769.667 OFFCURVE",
"319.333 775 OFFCURVE",
"312 779 CURVE",
"255.333 813.667 OFFCURVE",
"210.333 856.833 OFFCURVE",
"177 908.5 CURVE SMOOTH",
"143.667 960.167 OFFCURVE",
"127 1019.333 OFFCURVE",
"127 1086 CURVE SMOOTH",
"127 1152 OFFCURVE",
"143.667 1211.667 OFFCURVE",
"177 1265 CURVE SMOOTH",
"210.333 1318.333 OFFCURVE",
"256.5 1362.167 OFFCURVE",
"315.5 1396.5 CURVE SMOOTH",
"374.5 1430.833 OFFCURVE",
"442.333 1452.667 OFFCURVE",
"519 1462 CURVE SMOOTH",
"533.667 1464 OFFCURVE",
"544 1462.333 OFFCURVE",
"550 1457 CURVE SMOOTH",
"556 1451.667 OFFCURVE",
"559 1443.333 OFFCURVE",
"559 1432 CURVE SMOOTH",
"559 1339 LINE SMOOTH",
"559 1330.333 OFFCURVE",
"556.667 1323.333 OFFCURVE",
"552 1318 CURVE SMOOTH",
"547.333 1312.667 OFFCURVE",
"538 1308.667 OFFCURVE",
"524 1306 CURVE SMOOTH",
"458.667 1293.333 OFFCURVE",
"406 1266.167 OFFCURVE",
"366 1224.5 CURVE SMOOTH",
"326 1182.833 OFFCURVE",
"306 1131.667 OFFCURVE",
"306 1071 CURVE SMOOTH",
"306 1009.667 OFFCURVE",
"326.167 957.5 OFFCURVE",
"366.5 914.5 CURVE SMOOTH",
"406.833 871.5 OFFCURVE",
"460.333 844 OFFCURVE",
"527 832 CURVE",
"537 830.667 OFFCURVE",
"544.833 827.333 OFFCURVE",
"550.5 822 CURVE SMOOTH",
"556.167 816.667 OFFCURVE",
"559 808.333 OFFCURVE",
"559 797 CURVE SMOOTH",
"559 712 LINE SMOOTH",
"559 690.667 OFFCURVE",
"548.333 678.333 OFFCURVE",
"527 675 CURVE SMOOTH",
"446.333 662.333 OFFCURVE",
"381.333 631.5 OFFCURVE",
"332 582.5 CURVE SMOOTH",
"282.667 533.5 OFFCURVE",
"258 473.667 OFFCURVE",
"258 403 CURVE SMOOTH",
"258 334.333 OFFCURVE",
"282.833 276 OFFCURVE",
"332.5 228 CURVE SMOOTH",
"382.167 180 OFFCURVE",
"447 150.333 OFFCURVE",
"527 139 CURVE SMOOTH",
"539.667 137 OFFCURVE",
"548.167 133 OFFCURVE",
"552.5 127 CURVE SMOOTH",
"556.833 121 OFFCURVE",
"559 113.667 OFFCURVE",
"559 105 CURVE SMOOTH",
"559 10 LINE SMOOTH",
"559 -1.333 OFFCURVE",
"555.833 -9.5 OFFCURVE",
"549.5 -14.5 CURVE SMOOTH",
"543.167 -19.5 OFFCURVE",
"532.667 -21.333 OFFCURVE",
"518 -20 CURVE",
"518 -20 LINE"
);
},
{
closed = 1;
nodes = (
"665.333 -21.333 OFFCURVE",
"654.833 -19.5 OFFCURVE",
"648.5 -14.5 CURVE SMOOTH",
"642.167 -9.5 OFFCURVE",
"639 -1.333 OFFCURVE",
"639 10 CURVE SMOOTH",
"639 105 LINE SMOOTH",
"639 113.667 OFFCURVE",
"641.167 121 OFFCURVE",
"645.5 127 CURVE SMOOTH",
"649.833 133 OFFCURVE",
"658.333 137 OFFCURVE",
"671 139 CURVE SMOOTH",
"751 150.333 OFFCURVE",
"815.833 180 OFFCURVE",
"865.5 228 CURVE SMOOTH",
"915.167 276 OFFCURVE",
"940 334.333 OFFCURVE",
"940 403 CURVE SMOOTH",
"940 473.667 OFFCURVE",
"915.333 533.5 OFFCURVE",
"866 582.5 CURVE SMOOTH",
"816.667 631.5 OFFCURVE",
"751.667 662.333 OFFCURVE",
"671 675 CURVE SMOOTH",
"649.667 678.333 OFFCURVE",
"639 690.667 OFFCURVE",
"639 712 CURVE SMOOTH",
"639 797 LINE SMOOTH",
"639 808.333 OFFCURVE",
"641.833 816.667 OFFCURVE",
"647.5 822 CURVE SMOOTH",
"653.167 827.333 OFFCURVE",
"661 830.667 OFFCURVE",
"671 832 CURVE",
"738.333 844 OFFCURVE",
"792 871.5 OFFCURVE",
"832 914.5 CURVE SMOOTH",
"872 957.5 OFFCURVE",
"892 1009.667 OFFCURVE",
"892 1071 CURVE SMOOTH",
"892 1131.667 OFFCURVE",
"872 1182.833 OFFCURVE",
"832 1224.5 CURVE SMOOTH",
"792 1266.167 OFFCURVE",
"739.333 1293.333 OFFCURVE",
"674 1306 CURVE SMOOTH",
"660 1308.667 OFFCURVE",
"650.667 1312.667 OFFCURVE",
"646 1318 CURVE SMOOTH",
"641.333 1323.333 OFFCURVE",
"639 1330.333 OFFCURVE",
"639 1339 CURVE SMOOTH",
"639 1432 LINE SMOOTH",
"639 1443.333 OFFCURVE",
"642 1451.667 OFFCURVE",
"648 1457 CURVE SMOOTH",
"654 1462.333 OFFCURVE",
"664.333 1464 OFFCURVE",
"679 1462 CURVE SMOOTH",
"756.333 1452.667 OFFCURVE",
"824.333 1430.833 OFFCURVE",
"883 1396.5 CURVE SMOOTH",
"941.667 1362.167 OFFCURVE",
"987.667 1318.333 OFFCURVE",
"1021 1265 CURVE SMOOTH",
"1054.333 1211.667 OFFCURVE",
"1071 1152 OFFCURVE",
"1071 1086 CURVE SMOOTH",
"1071 1019.333 OFFCURVE",
"1054.5 960.167 OFFCURVE",
"1021.5 908.5 CURVE SMOOTH",
"988.5 856.833 OFFCURVE",
"943.333 813.667 OFFCURVE",
"886 779 CURVE",
"878.667 775 OFFCURVE",
"875 769.667 OFFCURVE",
"875 763 CURVE SMOOTH",
"875 756.333 OFFCURVE",
"878.333 751.333 OFFCURVE",
"885 748 CURVE SMOOTH",
"957.667 713.333 OFFCURVE",
"1015.5 665.5 OFFCURVE",
"1058.5 604.5 CURVE SMOOTH",
"1101.5 543.5 OFFCURVE",
"1123 472.667 OFFCURVE",
"1123 392 CURVE SMOOTH",
"1123 318 OFFCURVE",
"1104.333 251.667 OFFCURVE",
"1067 193 CURVE SMOOTH",
"1029.667 134.333 OFFCURVE",
"977.833 86.5 OFFCURVE",
"911.5 49.5 CURVE SMOOTH",
"845.167 12.5 OFFCURVE",
"768 -10.667 OFFCURVE",
"680 -20 CURVE",
"680 -20 LINE"
);
}
);
width = 1198;
}
);
note = eight;
unicode = 0038;
},
{
glyphname = nine;
layers = (
{
layerId = "C0C2D967-6C35-4E4E-AAA8-D02C1745AD4B";
paths = (
{
closed = 1;
nodes = (
"409 -10.667 OFFCURVE",
"322.5 24 OFFCURVE",
"251.5 82 CURVE SMOOTH",
"180.5 140 OFFCURVE",
"132.333 216 OFFCURVE",
"107 310 CURVE SMOOTH",
"103.667 322.667 OFFCURVE",
"105.667 332.167 OFFCURVE",
"113 338.5 CURVE SMOOTH",
"120.333 344.833 OFFCURVE",
"128.333 348 OFFCURVE",
"137 348 CURVE SMOOTH",
"246 348 LINE SMOOTH",
"268 348 OFFCURVE",
"284 335.333 OFFCURVE",
"294 310 CURVE SMOOTH",
"313.333 262.667 OFFCURVE",
"341.5 223.667 OFFCURVE",
"378.5 193 CURVE SMOOTH",
"415.5 162.333 OFFCURVE",
"460.667 144 OFFCURVE",
"514 138 CURVE SMOOTH",
"528 136.667 OFFCURVE",
"536.5 133.333 OFFCURVE",
"539.5 128 CURVE SMOOTH",
"542.5 122.667 OFFCURVE",
"544 113 OFFCURVE",
"544 99 CURVE SMOOTH",
"544 10 LINE SMOOTH",
"544 -13.333 OFFCURVE",
"533 -24 OFFCURVE",
"511 -22 CURVE",
"511 -22 LINE"
);
},
{
closed = 1;
nodes = (
"642 -22.667 OFFCURVE",
"632 -13 OFFCURVE",
"632 9 CURVE SMOOTH",
"632 106 LINE SMOOTH",
"632 126 OFFCURVE",
"643.333 138.667 OFFCURVE",
"666 144 CURVE SMOOTH",
"729.333 159.333 OFFCURVE",
"781.5 191.5 OFFCURVE",
"822.5 240.5 CURVE SMOOTH",
"863.5 289.5 OFFCURVE",
"895 350.333 OFFCURVE",
"917 423 CURVE SMOOTH",
"939 495.667 OFFCURVE",
"952.333 575 OFFCURVE",
"957 661 CURVE SMOOTH",
"957.667 672.333 OFFCURVE",
"954.333 679.167 OFFCURVE",
"947 681.5 CURVE SMOOTH",
"939.667 683.833 OFFCURVE",
"932.667 680.333 OFFCURVE",
"926 671 CURVE SMOOTH",
"900 635 OFFCURVE",
"868.167 604 OFFCURVE",
"830.5 578 CURVE SMOOTH",
"792.833 552 OFFCURVE",
"750.667 532 OFFCURVE",
"704 518 CURVE SMOOTH",
"657.333 504 OFFCURVE",
"607.333 497 OFFCURVE",
"554 497 CURVE SMOOTH",
"462.667 497 OFFCURVE",
"380.833 517.667 OFFCURVE",
"308.5 559 CURVE SMOOTH",
"236.167 600.333 OFFCURVE",
"179.167 656.833 OFFCURVE",
"137.5 728.5 CURVE SMOOTH",
"95.833 800.167 OFFCURVE",
"75 881.333 OFFCURVE",
"75 972 CURVE SMOOTH",
"75 1059.333 OFFCURVE",
"93.667 1138 OFFCURVE",
"131 1208 CURVE SMOOTH",
"168.333 1278 OFFCURVE",
"220 1335.333 OFFCURVE",
"286 1380 CURVE SMOOTH",
"352 1424.667 OFFCURVE",
"427.667 1452.333 OFFCURVE",
"513 1463 CURVE SMOOTH",
"533.667 1465.667 OFFCURVE",
"544 1457 OFFCURVE",
"544 1437 CURVE SMOOTH",
"544 1339 LINE SMOOTH",
"544 1316.333 OFFCURVE",
"534.667 1303 OFFCURVE",
"516 1299 CURVE SMOOTH",
"466 1288.333 OFFCURVE",
"421.667 1267.833 OFFCURVE",
"383 1237.5 CURVE SMOOTH",
"344.333 1207.167 OFFCURVE",
"313.833 1169.667 OFFCURVE",
"291.5 1125 CURVE SMOOTH",
"269.167 1080.333 OFFCURVE",
"258 1031.333 OFFCURVE",
"258 978 CURVE SMOOTH",
"258 916 OFFCURVE",
"272 860.667 OFFCURVE",
"300 812 CURVE SMOOTH",
"328 763.333 OFFCURVE",
"366.833 725 OFFCURVE",
"416.5 697 CURVE SMOOTH",
"466.167 669 OFFCURVE",
"523.333 655 OFFCURVE",
"588 655 CURVE SMOOTH",
"650 655 OFFCURVE",
"705.833 668.833 OFFCURVE",
"755.5 696.5 CURVE SMOOTH",
"805.167 724.167 OFFCURVE",
"844.5 762 OFFCURVE",
"873.5 810 CURVE SMOOTH",
"902.5 858 OFFCURVE",
"917 911.667 OFFCURVE",
"917 971 CURVE SMOOTH",
"917 1025.667 OFFCURVE",
"906.167 1075.833 OFFCURVE",
"884.5 1121.5 CURVE SMOOTH",
"862.833 1167.167 OFFCURVE",
"833 1205.667 OFFCURVE",
"795 1237 CURVE SMOOTH",
"757 1268.333 OFFCURVE",
"713.333 1289.333 OFFCURVE",
"664 1300 CURVE SMOOTH",
"642.667 1304.667 OFFCURVE",
"632 1316.667 OFFCURVE",
"632 1336 CURVE SMOOTH",
"632 1437 LINE SMOOTH",
"632 1456.333 OFFCURVE",
"641.667 1465 OFFCURVE",
"661 1463 CURVE SMOOTH",
"745 1452.333 OFFCURVE",
"818.5 1423.667 OFFCURVE",
"881.5 1377 CURVE SMOOTH",
"944.5 1330.333 OFFCURVE",
"994.667 1272.667 OFFCURVE",
"1032 1204 CURVE SMOOTH",
"1068.667 1138.667 OFFCURVE",
"1094.833 1068.333 OFFCURVE",
"1110.5 993 CURVE SMOOTH",
"1126.167 917.667 OFFCURVE",
"1134 835.333 OFFCURVE",
"1134 746 CURVE SMOOTH",
"1134 597.333 OFFCURVE",
"1115.5 468.333 OFFCURVE",
"1078.5 359 CURVE SMOOTH",
"1041.5 249.667 OFFCURVE",
"987.833 162.833 OFFCURVE",
"917.5 98.5 CURVE SMOOTH",
"847.167 34.167 OFFCURVE",
"762 -5.333 OFFCURVE",
"662 -20 CURVE",
"662 -20 LINE"
);
}
);
width = 1214;
}
);
note = nine;
unicode = 0039;
},
{
glyphname = "zero-deva";
layers = (
{
layerId = "C0C2D967-6C35-4E4E-AAA8-D02C1745AD4B";
paths = (
{
closed = 1;
nodes = (
"579.667 223.667 OFFCURVE",
"568 234 OFFCURVE",
"568 258 CURVE SMOOTH",
"568 353 LINE SMOOTH",
"568 363 OFFCURVE",
"570.5 370.667 OFFCURVE",
"575.5 376 CURVE SMOOTH",
"580.5 381.333 OFFCURVE",
"588 385.333 OFFCURVE",
"598 388 CURVE SMOOTH",
"640.667 398.667 OFFCURVE",
"677.5 417.667 OFFCURVE",
"708.5 445 CURVE SMOOTH",
"739.5 472.333 OFFCURVE",
"763.667 506.667 OFFCURVE",
"781 548 CURVE SMOOTH",
"798.333 589.333 OFFCURVE",
"807 636.333 OFFCURVE",
"807 689 CURVE SMOOTH",
"807 743 OFFCURVE",
"798.333 790.833 OFFCURVE",
"781 832.5 CURVE SMOOTH",
"763.667 874.167 OFFCURVE",
"739.5 908.5 OFFCURVE",
"708.5 935.5 CURVE SMOOTH",
"677.5 962.5 OFFCURVE",
"640.667 981 OFFCURVE",
"598 991 CURVE SMOOTH",
"588 993.667 OFFCURVE",
"580.5 997.667 OFFCURVE",
"575.5 1003 CURVE SMOOTH",
"570.5 1008.333 OFFCURVE",
"568 1016 OFFCURVE",
"568 1026 CURVE SMOOTH",
"568 1122 LINE SMOOTH",
"568 1146 OFFCURVE",
"579.667 1156.333 OFFCURVE",
"603 1153 CURVE SMOOTH",
"677 1142.333 OFFCURVE",
"743.167 1116.167 OFFCURVE",
"801.5 1074.5 CURVE SMOOTH",
"859.833 1032.833 OFFCURVE",
"905.667 979.167 OFFCURVE",
"939 913.5 CURVE SMOOTH",
"972.333 847.833 OFFCURVE",
"989 773.333 OFFCURVE",
"989 690 CURVE SMOOTH",
"989 606.667 OFFCURVE",
"972.333 532.167 OFFCURVE",
"939 466.5 CURVE SMOOTH",
"905.667 400.833 OFFCURVE",
"859.833 347.167 OFFCURVE",
"801.5 305.5 CURVE SMOOTH",
"743.167 263.833 OFFCURVE",
"677 237.667 OFFCURVE",
"603 227 CURVE",
"603 227 LINE"
);
},
{
closed = 1;
nodes = (
"379.667 237.667 OFFCURVE",
"313.833 263.833 OFFCURVE",
"255.5 305.5 CURVE SMOOTH",
"197.167 347.167 OFFCURVE",
"151.333 400.833 OFFCURVE",
"118 466.5 CURVE SMOOTH",
"84.667 532.167 OFFCURVE",
"68 606.667 OFFCURVE",
"68 690 CURVE SMOOTH",
"68 773.333 OFFCURVE",
"84.667 847.667 OFFCURVE",
"118 913 CURVE SMOOTH",
"151.333 978.333 OFFCURVE",
"197 1031.833 OFFCURVE",
"255 1073.5 CURVE SMOOTH",
"313 1115.167 OFFCURVE",
"379 1141.333 OFFCURVE",
"453 1152 CURVE SMOOTH",
"476.333 1155.333 OFFCURVE",
"488 1145 OFFCURVE",
"488 1121 CURVE SMOOTH",
"488 1025 LINE SMOOTH",
"488 1015 OFFCURVE",
"485.5 1007.333 OFFCURVE",
"480.5 1002 CURVE SMOOTH",
"475.5 996.667 OFFCURVE",
"468 992.667 OFFCURVE",
"458 990 CURVE SMOOTH",
"416 980 OFFCURVE",
"379.5 961.5 OFFCURVE",
"348.5 934.5 CURVE SMOOTH",
"317.5 907.5 OFFCURVE",
"293.333 873.333 OFFCURVE",
"276 832 CURVE SMOOTH",
"258.667 790.667 OFFCURVE",
"250 743.333 OFFCURVE",
"250 690 CURVE SMOOTH",
"250 636.667 OFFCURVE",
"258.667 589.167 OFFCURVE",
"276 547.5 CURVE SMOOTH",
"293.333 505.833 OFFCURVE",
"317.5 471.5 OFFCURVE",
"348.5 444.5 CURVE SMOOTH",
"379.5 417.5 OFFCURVE",
"416 399 OFFCURVE",
"458 389 CURVE SMOOTH",
"468 386.333 OFFCURVE",
"475.5 382.167 OFFCURVE",
"480.5 376.5 CURVE SMOOTH",
"485.5 370.833 OFFCURVE",
"488 363 OFFCURVE",
"488 353 CURVE SMOOTH",
"488 258 LINE SMOOTH",
"488 234 OFFCURVE",
"476.333 223.667 OFFCURVE",
"453 227 CURVE",
"453 227 LINE"
);
}
);
width = 1057;
}
);
note = "zero-deva";
unicode = 0966;
},
{
glyphname = "one-deva";
layers = (
{
layerId = "C0C2D967-6C35-4E4E-AAA8-D02C1745AD4B";
paths = (
{
closed = 1;
nodes = (
"109.333 397 OFFCURVE",
"97 408 OFFCURVE",
"97 432 CURVE SMOOTH",
"97 526 LINE SMOOTH",
"97 545.333 OFFCURVE",
"108 556.333 OFFCURVE",
"130 559 CURVE SMOOTH",
"229.333 571.667 OFFCURVE",
"314 587.667 OFFCURVE",
"384 607 CURVE SMOOTH",
"454 626.333 OFFCURVE",
"512.167 649.333 OFFCURVE",
"558.5 676 CURVE SMOOTH",
"604.833 702.667 OFFCURVE",
"642 732.333 OFFCURVE",
"670 765 CURVE SMOOTH",
"676.667 772.333 OFFCURVE",
"677 779 OFFCURVE",
"671 785 CURVE SMOOTH",
"665 791 OFFCURVE",
"658.667 791 OFFCURVE",
"652 785 CURVE SMOOTH",
"627.333 763.667 OFFCURVE",
"597 747 OFFCURVE",
"561 735 CURVE SMOOTH",
"525 723 OFFCURVE",
"485.333 717 OFFCURVE",
"442 717 CURVE SMOOTH",
"369.333 717 OFFCURVE",
"304.667 732.5 OFFCURVE",
"248 763.5 CURVE SMOOTH",
"191.333 794.5 OFFCURVE",
"146.833 837.167 OFFCURVE",
"114.5 891.5 CURVE SMOOTH",
"82.167 945.833 OFFCURVE",
"66 1008 OFFCURVE",
"66 1078 CURVE SMOOTH",
"66 1144.667 OFFCURVE",
"80.5 1205 OFFCURVE",
"109.5 1259 CURVE SMOOTH",
"138.5 1313 OFFCURVE",
"178.333 1357.667 OFFCURVE",
"229 1393 CURVE SMOOTH",
"279.667 1428.333 OFFCURVE",
"337.667 1451.333 OFFCURVE",
"403 1462 CURVE SMOOTH",
"426.333 1465.333 OFFCURVE",
"438 1455 OFFCURVE",
"438 1431 CURVE SMOOTH",
"438 1335 LINE SMOOTH",
"438 1315 OFFCURVE",
"428.333 1302.333 OFFCURVE",
"409 1297 CURVE SMOOTH",
"361.667 1282.333 OFFCURVE",
"323 1254.667 OFFCURVE",
"293 1214 CURVE SMOOTH",
"263 1173.333 OFFCURVE",
"248 1126 OFFCURVE",
"248 1072 CURVE SMOOTH",
"248 1028.667 OFFCURVE",
"257.833 989.833 OFFCURVE",
"277.5 955.5 CURVE SMOOTH",
"297.167 921.167 OFFCURVE",
"324.333 894.167 OFFCURVE",
"359 874.5 CURVE SMOOTH",
"393.667 854.833 OFFCURVE",
"433.667 845 OFFCURVE",
"479 845 CURVE SMOOTH",
"524.333 845 OFFCURVE",
"564.667 854.833 OFFCURVE",
"600 874.5 CURVE SMOOTH",
"635.333 894.167 OFFCURVE",
"663.167 921.167 OFFCURVE",
"683.5 955.5 CURVE SMOOTH",
"703.833 989.833 OFFCURVE",
"714 1029 OFFCURVE",
"714 1073 CURVE SMOOTH",
"714 1127.667 OFFCURVE",
"698.5 1175.667 OFFCURVE",
"667.5 1217 CURVE SMOOTH",
"636.5 1258.333 OFFCURVE",
"596.333 1286 OFFCURVE",
"547 1300 CURVE SMOOTH",
"527.667 1305.333 OFFCURVE",
"518 1318 OFFCURVE",
"518 1338 CURVE SMOOTH",
"518 1431 LINE SMOOTH",
"518 1442.333 OFFCURVE",
"521.167 1450.667 OFFCURVE",
"527.5 1456 CURVE SMOOTH",
"533.833 1461.333 OFFCURVE",
"542.333 1463.333 OFFCURVE",
"553 1462 CURVE SMOOTH",
"621 1452 OFFCURVE",
"681 1427.333 OFFCURVE",
"733 1388 CURVE SMOOTH",
"785 1348.667 OFFCURVE",
"825.5 1297.5 OFFCURVE",
"854.5 1234.5 CURVE SMOOTH",
"883.5 1171.5 OFFCURVE",
"898 1098.667 OFFCURVE",
"898 1016 CURVE SMOOTH",
"898 904.667 OFFCURVE",
"874.5 810.667 OFFCURVE",
"827.5 734 CURVE SMOOTH",
"780.5 657.333 OFFCURVE",
"719 595.167 OFFCURVE",
"643 547.5 CURVE SMOOTH",
"567 499.833 OFFCURVE",
"484.333 464.333 OFFCURVE",
"395 441 CURVE SMOOTH",
"305.667 417.667 OFFCURVE",
"218.667 403.667 OFFCURVE",
"134 399 CURVE",
"134 399 LINE"
);
},
{
closed = 1;
nodes = (
"499.333 -24 OFFCURVE",
"490.833 -21.667 OFFCURVE",
"484.5 -17 CURVE SMOOTH",
"478.167 -12.333 OFFCURVE",
"470.667 -5.333 OFFCURVE",
"462 4 CURVE",
"222 286 LINE SMOOTH",
"214.667 294.667 OFFCURVE",
"212.5 303.5 OFFCURVE",
"215.5 312.5 CURVE SMOOTH",
"218.5 321.5 OFFCURVE",
"226.333 326.667 OFFCURVE",
"239 328 CURVE",
"259 331.333 OFFCURVE",
"277 334.333 OFFCURVE",
"293 337 CURVE SMOOTH",
"309 339.667 OFFCURVE",
"327.333 343 OFFCURVE",
"348 347 CURVE",
"365.333 351 OFFCURVE",
"380 346 OFFCURVE",
"392 332 CURVE SMOOTH",
"678 14 LINE SMOOTH",
"686 5.333 OFFCURVE",
"688.5 -3.167 OFFCURVE",
"685.5 -11.5 CURVE SMOOTH",
"682.5 -19.833 OFFCURVE",
"675.333 -24 OFFCURVE",
"664 -24 CURVE SMOOTH",
"510 -24 LINE",
"510 -24 LINE SMOOTH"
);
}
);
width = 952;
}
);
note = "one-deva";
unicode = 0967;
},
{
glyphname = "two-deva";
layers = (
{
layerId = "C0C2D967-6C35-4E4E-AAA8-D02C1745AD4B";
paths = (
{
closed = 1;
nodes = (
"82.667 1090 OFFCURVE",
"74.333 1093.5 OFFCURVE",
"69 1100.5 CURVE SMOOTH",
"63.667 1107.5 OFFCURVE",
"62.333 1116.333 OFFCURVE",
"65 1127 CURVE SMOOTH",
"79 1183 OFFCURVE",
"103.167 1234.667 OFFCURVE",
"137.5 1282 CURVE SMOOTH",
"171.833 1329.333 OFFCURVE",
"215.333 1369 OFFCURVE",
"268 1401 CURVE SMOOTH",
"320.667 1433 OFFCURVE",
"381 1453.667 OFFCURVE",
"449 1463 CURVE SMOOTH",
"472.333 1466.333 OFFCURVE",
"484 1456 OFFCURVE",
"484 1432 CURVE SMOOTH",
"484 1336 LINE SMOOTH",
"484 1326 OFFCURVE",
"481.5 1318.167 OFFCURVE",
"476.5 1312.5 CURVE SMOOTH",
"471.5 1306.833 OFFCURVE",
"464 1303 OFFCURVE",
"454 1301 CURVE SMOOTH",
"419.333 1293.667 OFFCURVE",
"388.5 1281.167 OFFCURVE",
"361.5 1263.5 CURVE SMOOTH",
"334.5 1245.833 OFFCURVE",
"311.667 1225 OFFCURVE",
"293 1201 CURVE SMOOTH",
"274.333 1177 OFFCURVE",
"259.667 1151.333 OFFCURVE",
"249 1124 CURVE SMOOTH",
"244.333 1111.333 OFFCURVE",
"238.333 1102.5 OFFCURVE",
"231 1097.5 CURVE SMOOTH",
"223.667 1092.5 OFFCURVE",
"212.667 1090 OFFCURVE",
"198 1090 CURVE SMOOTH",
"94 1090 LINE",
"94 1090 LINE SMOOTH"
);
},
{
closed = 1;
nodes = (
"550.333 440 OFFCURVE",
"544 440 OFFCURVE",
"540 440 CURVE SMOOTH",
"536 440 OFFCURVE",
"532.333 440 OFFCURVE",
"529 440 CURVE SMOOTH",
"518.333 440 OFFCURVE",
"510.167 442 OFFCURVE",
"504.5 446 CURVE SMOOTH",
"498.833 450 OFFCURVE",
"493.333 455.667 OFFCURVE",
"488 463 CURVE",
"417 570 LINE SMOOTH",
"410.333 580 OFFCURVE",
"409.333 589 OFFCURVE",
"414 597 CURVE SMOOTH",
"418.667 605 OFFCURVE",
"427 608 OFFCURVE",
"439 606 CURVE SMOOTH",
"452.333 604 OFFCURVE",
"465.333 602.5 OFFCURVE",
"478 601.5 CURVE SMOOTH",
"490.667 600.5 OFFCURVE",
"504 600 OFFCURVE",
"518 600 CURVE SMOOTH",
"583.333 600 OFFCURVE",
"640 614 OFFCURVE",
"688 642 CURVE SMOOTH",
"736 670 OFFCURVE",
"773 710.333 OFFCURVE",
"799 763 CURVE SMOOTH",
"825 815.667 OFFCURVE",
"838 879.333 OFFCURVE",
"838 954 CURVE SMOOTH",
"838 1022 OFFCURVE",
"827.833 1080.167 OFFCURVE",
"807.5 1128.5 CURVE SMOOTH",
"787.167 1176.833 OFFCURVE",
"758.667 1215.5 OFFCURVE",
"722 1244.5 CURVE SMOOTH",
"685.333 1273.5 OFFCURVE",
"642.667 1292.667 OFFCURVE",
"594 1302 CURVE",
"584 1303.333 OFFCURVE",
"576.5 1307 OFFCURVE",
"571.5 1313 CURVE SMOOTH",
"566.5 1319 OFFCURVE",
"564 1327 OFFCURVE",
"564 1337 CURVE SMOOTH",
"564 1432 LINE SMOOTH",
"564 1455.333 OFFCURVE",
"575.667 1466 OFFCURVE",
"599 1464 CURVE",
"681 1454 OFFCURVE",
"753.667 1427.667 OFFCURVE",
"817 1385 CURVE SMOOTH",
"880.333 1342.333 OFFCURVE",
"930 1284.667 OFFCURVE",
"966 1212 CURVE SMOOTH",
"1002 1139.333 OFFCURVE",
"1020 1052.667 OFFCURVE",
"1020 952 CURVE SMOOTH",
"1020 874 OFFCURVE",
"1009 803.667 OFFCURVE",
"987 741 CURVE SMOOTH",
"965 678.333 OFFCURVE",
"933.5 624.5 OFFCURVE",
"892.5 579.5 CURVE SMOOTH",
"851.5 534.5 OFFCURVE",
"802.833 500 OFFCURVE",
"746.5 476 CURVE SMOOTH",
"690.167 452 OFFCURVE",
"627.667 440 OFFCURVE",
"559 440 CURVE SMOOTH",
"559 440 LINE SMOOTH"
);
},
{
closed = 1;
nodes = (
"516.333 -24 OFFCURVE",
"506.167 -21.833 OFFCURVE",
"498.5 -17.5 CURVE SMOOTH",
"490.833 -13.167 OFFCURVE",
"483.333 -5.667 OFFCURVE",
"476 5 CURVE",
"73 665 LINE SMOOTH",
"66.333 676.333 OFFCURVE",
"65.167 686.333 OFFCURVE",
"69.5 695 CURVE SMOOTH",
"73.833 703.667 OFFCURVE",
"82.333 708 OFFCURVE",
"95 708 CURVE SMOOTH",
"205 708 LINE SMOOTH",
"218.333 708 OFFCURVE",
"228.833 706 OFFCURVE",
"236.5 702 CURVE SMOOTH",
"244.167 698 OFFCURVE",
"251.333 690.333 OFFCURVE",
"258 679 CURVE SMOOTH",
"672 19 LINE SMOOTH",
"679.333 7.667 OFFCURVE",
"680.667 -2.333 OFFCURVE",
"676 -11 CURVE SMOOTH",
"671.333 -19.667 OFFCURVE",
"662.667 -24 OFFCURVE",
"650 -24 CURVE SMOOTH",
"529 -24 LINE",
"529 -24 LINE SMOOTH"
);
}
);
width = 1070;
}
);
note = "two-deva";
unicode = 0968;
},
{
glyphname = "three-deva";
layers = (
{
layerId = "C0C2D967-6C35-4E4E-AAA8-D02C1745AD4B";
paths = (
{
closed = 1;
nodes = (
"545.667 170 OFFCURVE",
"538.333 170.167 OFFCURVE",
"531 170.5 CURVE SMOOTH",
"523.667 170.833 OFFCURVE",
"515.667 171.333 OFFCURVE",
"507 172 CURVE",
"496.333 173.333 OFFCURVE",
"488 175.833 OFFCURVE",
"482 179.5 CURVE SMOOTH",
"476 183.167 OFFCURVE",
"469.667 190 OFFCURVE",
"463 200 CURVE SMOOTH",
"401 299 LINE SMOOTH",
"394.333 309 OFFCURVE",
"393.333 318 OFFCURVE",
"398 326 CURVE SMOOTH",
"402.667 334 OFFCURVE",
"411 337 OFFCURVE",
"423 335 CURVE SMOOTH",
"434.333 333 OFFCURVE",
"446.333 331.667 OFFCURVE",
"459 331 CURVE SMOOTH",
"471.667 330.333 OFFCURVE",
"484.667 330 OFFCURVE",
"498 330 CURVE SMOOTH",
"580 330 OFFCURVE",
"645.333 347 OFFCURVE",
"694 381 CURVE SMOOTH",
"742.667 415 OFFCURVE",
"767 466 OFFCURVE",
"767 534 CURVE SMOOTH",
"767 596.667 OFFCURVE",
"743.833 646.333 OFFCURVE",
"697.5 683 CURVE SMOOTH",
"651.167 719.667 OFFCURVE",
"585.667 738 OFFCURVE",
"501 738 CURVE SMOOTH",
"314 738 LINE SMOOTH",
"292 738 OFFCURVE",
"281 749 OFFCURVE",
"281 771 CURVE SMOOTH",
"281 858 LINE SMOOTH",
"281 879.333 OFFCURVE",
"292 890 OFFCURVE",
"314 890 CURVE SMOOTH",
"482 890 LINE SMOOTH",
"533.333 890 OFFCURVE",
"578.833 898.333 OFFCURVE",
"618.5 915 CURVE SMOOTH",
"658.167 931.667 OFFCURVE",
"689.167 956 OFFCURVE",
"711.5 988 CURVE SMOOTH",
"733.833 1020 OFFCURVE",
"745 1058.333 OFFCURVE",
"745 1103 CURVE SMOOTH",
"745 1155 OFFCURVE",
"730.167 1198.167 OFFCURVE",
"700.5 1232.5 CURVE SMOOTH",
"670.833 1266.833 OFFCURVE",
"629.333 1290.333 OFFCURVE",
"576 1303 CURVE",
"566 1305 OFFCURVE",
"558.5 1308.833 OFFCURVE",
"553.5 1314.5 CURVE SMOOTH",
"548.5 1320.167 OFFCURVE",
"546 1328 OFFCURVE",
"546 1338 CURVE SMOOTH",
"546 1431 LINE SMOOTH",
"546 1455 OFFCURVE",
"557.667 1465.333 OFFCURVE",
"581 1462 CURVE SMOOTH",
"651 1452.667 OFFCURVE",
"711.833 1431.833 OFFCURVE",
"763.5 1399.5 CURVE SMOOTH",
"815.167 1367.167 OFFCURVE",
"855.167 1326.5 OFFCURVE",
"883.5 1277.5 CURVE SMOOTH",
"911.833 1228.5 OFFCURVE",
"926 1174.333 OFFCURVE",
"926 1115 CURVE SMOOTH",
"926 1050.333 OFFCURVE",
"909.5 994.5 OFFCURVE",
"876.5 947.5 CURVE SMOOTH",
"843.5 900.5 OFFCURVE",
"798 865 OFFCURVE",
"740 841 CURVE SMOOTH",
"732 837.667 OFFCURVE",
"728 832.5 OFFCURVE",
"728 825.5 CURVE SMOOTH",
"728 818.5 OFFCURVE",
"732 813.333 OFFCURVE",
"740 810 CURVE SMOOTH",
"804 784 OFFCURVE",
"854.833 747 OFFCURVE",
"892.5 699 CURVE SMOOTH",
"930.167 651 OFFCURVE",
"949 591 OFFCURVE",
"949 519 CURVE SMOOTH",
"949 451.667 OFFCURVE",
"931.833 391.667 OFFCURVE",
"897.5 339 CURVE SMOOTH",
"863.167 286.333 OFFCURVE",
"816.167 245 OFFCURVE",
"756.5 215 CURVE SMOOTH",
"696.833 185 OFFCURVE",
"629 170 OFFCURVE",
"553 170 CURVE SMOOTH",
"553 170 LINE SMOOTH"
);
},
{
closed = 1;
nodes = (
"340.333 -24 OFFCURVE",
"330.167 -21.833 OFFCURVE",
"322.5 -17.5 CURVE SMOOTH",
"314.833 -13.167 OFFCURVE",
"307.333 -5.667 OFFCURVE",
"300 5 CURVE",
"57 396 LINE SMOOTH",
"49.667 408 OFFCURVE",
"48.333 418.167 OFFCURVE",
"53 426.5 CURVE SMOOTH",
"57.667 434.833 OFFCURVE",
"66.333 439 OFFCURVE",
"79 439 CURVE SMOOTH",
"185 439 LINE SMOOTH",
"198.333 439 OFFCURVE",
"208.833 437 OFFCURVE",
"216.5 433 CURVE SMOOTH",
"224.167 429 OFFCURVE",
"231.333 421.333 OFFCURVE",
"238 410 CURVE SMOOTH",
"481 19 LINE SMOOTH",
"488.333 7.667 OFFCURVE",
"489.667 -2.333 OFFCURVE",
"485 -11 CURVE SMOOTH",
"480.333 -19.667 OFFCURVE",
"471.667 -24 OFFCURVE",
"459 -24 CURVE SMOOTH",
"353 -24 LINE",
"353 -24 LINE SMOOTH"
);
},
{
closed = 1;
nodes = (
"91.667 1135 OFFCURVE",
"83.333 1138.5 OFFCURVE",
"78 1145.5 CURVE SMOOTH",
"72.667 1152.5 OFFCURVE",
"71.333 1161.333 OFFCURVE",
"74 1172 CURVE SMOOTH",
"91.333 1245.333 OFFCURVE",
"129.833 1309.333 OFFCURVE",
"189.5 1364 CURVE SMOOTH",
"249.167 1418.667 OFFCURVE",
"329.667 1451.667 OFFCURVE",
"431 1463 CURVE SMOOTH",
"454.333 1466.333 OFFCURVE",
"466 1455.667 OFFCURVE",
"466 1431 CURVE SMOOTH",
"466 1341 LINE SMOOTH",
"466 1331 OFFCURVE",
"463.333 1323.167 OFFCURVE",
"458 1317.5 CURVE SMOOTH",
"452.667 1311.833 OFFCURVE",
"445 1308 OFFCURVE",
"435 1306 CURVE SMOOTH",
"382.333 1297.333 OFFCURVE",
"340.667 1280.167 OFFCURVE",
"310 1254.5 CURVE SMOOTH",
"279.333 1228.833 OFFCURVE",
"259 1200.333 OFFCURVE",
"249 1169 CURVE SMOOTH",
"244.333 1155.667 OFFCURVE",
"238.333 1146.667 OFFCURVE",
"231 1142 CURVE SMOOTH",
"223.667 1137.333 OFFCURVE",
"212.667 1135 OFFCURVE",
"198 1135 CURVE SMOOTH",
"103 1135 LINE",
"103 1135 LINE SMOOTH"
);
}
);
width = 1019;
}
);
note = "three-deva";
unicode = 0969;
},
{
glyphname = "four-deva";
layers = (
{
layerId = "C0C2D967-6C35-4E4E-AAA8-D02C1745AD4B";
paths = (
{
closed = 1;
nodes = (
"140 450 OFFCURVE",
"154.833 509.667 OFFCURVE",
"184.5 563 CURVE SMOOTH",
"214.167 616.333 OFFCURVE",
"255 659.333 OFFCURVE",
"307 692 CURVE SMOOTH",
"314.333 696.667 OFFCURVE",
"318.167 701.833 OFFCURVE",
"318.5 707.5 CURVE SMOOTH",
"318.833 713.167 OFFCURVE",
"314.667 718.333 OFFCURVE",
"306 723 CURVE SMOOTH",
"233.333 760.333 OFFCURVE",
"175.833 813.167 OFFCURVE",
"133.5 881.5 CURVE SMOOTH",
"91.167 949.833 OFFCURVE",
"70 1030.667 OFFCURVE",
"70 1124 CURVE SMOOTH",
"70 1176 OFFCURVE",
"76.833 1227.667 OFFCURVE",
"90.5 1279 CURVE SMOOTH",
"104.167 1330.333 OFFCURVE",
"123 1377 OFFCURVE",
"147 1419 CURVE SMOOTH",
"152.333 1428.333 OFFCURVE",
"158.167 1434.667 OFFCURVE",
"164.5 1438 CURVE SMOOTH",
"170.833 1441.333 OFFCURVE",
"178.667 1443 OFFCURVE",
"188 1443 CURVE SMOOTH",
"319 1443 LINE SMOOTH",
"331.667 1443 OFFCURVE",
"339.833 1439 OFFCURVE",
"343.5 1431 CURVE SMOOTH",
"347.167 1423 OFFCURVE",
"346 1414 OFFCURVE",
"340 1404 CURVE SMOOTH",
"314.667 1364 OFFCURVE",
"293.667 1320.167 OFFCURVE",
"277 1272.5 CURVE SMOOTH",
"260.333 1224.833 OFFCURVE",
"252 1173.667 OFFCURVE",
"252 1119 CURVE SMOOTH",
"252 1059.667 OFFCURVE",
"262 1008.333 OFFCURVE",
"282 965 CURVE SMOOTH",
"302 921.667 OFFCURVE",
"329.833 886.667 OFFCURVE",
"365.5 860 CURVE SMOOTH",
"401.167 833.333 OFFCURVE",
"443 815.333 OFFCURVE",
"491 806 CURVE",
"501.667 804.667 OFFCURVE",
"509.5 801 OFFCURVE",
"514.5 795 CURVE SMOOTH",
"519.5 789 OFFCURVE",
"522 781 OFFCURVE",
"522 771 CURVE SMOOTH",
"522 667 LINE SMOOTH",
"522 657 OFFCURVE",
"519.5 649.167 OFFCURVE",
"514.5 643.5 CURVE SMOOTH",
"509.5 637.833 OFFCURVE",
"502.333 633.333 OFFCURVE",
"493 630 CURVE",
"443 615.333 OFFCURVE",
"402 587.167 OFFCURVE",
"370 545.5 CURVE SMOOTH",
"338 503.833 OFFCURVE",
"322 455.333 OFFCURVE",
"322 400 CURVE SMOOTH",
"322 344.667 OFFCURVE",
"338 296.167 OFFCURVE",
"370 254.5 CURVE SMOOTH",
"402 212.833 OFFCURVE",
"443 184.667 OFFCURVE",
"493 170 CURVE SMOOTH",
"502.333 167.333 OFFCURVE",
"509.5 163 OFFCURVE",
"514.5 157 CURVE SMOOTH",
"519.5 151 OFFCURVE",
"522 143 OFFCURVE",
"522 133 CURVE SMOOTH",
"522 37 LINE SMOOTH",
"522 13 OFFCURVE",
"510.333 2.667 OFFCURVE",
"487 6 CURVE SMOOTH",
"419.667 16 OFFCURVE",
"359.833 38.167 OFFCURVE",
"307.5 72.5 CURVE SMOOTH",
"255.167 106.833 OFFCURVE",
"214.167 150.833 OFFCURVE",
"184.5 204.5 CURVE SMOOTH",
"154.833 258.167 OFFCURVE",
"140 318 OFFCURVE",
"140 384 CURVE",
"140 384 LINE"
);
},
{
closed = 1;
nodes = (
"984 318 OFFCURVE",
"969.167 258.167 OFFCURVE",
"939.5 204.5 CURVE SMOOTH",
"909.833 150.833 OFFCURVE",
"869 106.833 OFFCURVE",
"817 72.5 CURVE SMOOTH",
"765 38.167 OFFCURVE",
"705 16 OFFCURVE",
"637 6 CURVE SMOOTH",
"613.667 2.667 OFFCURVE",
"602 13 OFFCURVE",
"602 37 CURVE SMOOTH",
"602 133 LINE SMOOTH",
"602 143 OFFCURVE",
"604.5 151 OFFCURVE",
"609.5 157 CURVE SMOOTH",
"614.5 163 OFFCURVE",
"621.667 167.333 OFFCURVE",
"631 170 CURVE SMOOTH",
"681 184.667 OFFCURVE",
"722 212.833 OFFCURVE",
"754 254.5 CURVE SMOOTH",
"786 296.167 OFFCURVE",
"802 344.667 OFFCURVE",
"802 400 CURVE SMOOTH",
"802 455.333 OFFCURVE",
"786 503.833 OFFCURVE",
"754 545.5 CURVE SMOOTH",
"722 587.167 OFFCURVE",
"681 615.333 OFFCURVE",
"631 630 CURVE",
"621.667 633.333 OFFCURVE",
"614.5 637.833 OFFCURVE",
"609.5 643.5 CURVE SMOOTH",
"604.5 649.167 OFFCURVE",
"602 657 OFFCURVE",
"602 667 CURVE SMOOTH",
"602 771 LINE SMOOTH",
"602 781 OFFCURVE",
"604.5 789 OFFCURVE",
"609.5 795 CURVE SMOOTH",
"614.5 801 OFFCURVE",
"622.333 804.667 OFFCURVE",
"633 806 CURVE",
"681 815.333 OFFCURVE",
"723 833.333 OFFCURVE",
"759 860 CURVE SMOOTH",
"795 886.667 OFFCURVE",
"822.833 921.667 OFFCURVE",
"842.5 965 CURVE SMOOTH",
"862.167 1008.333 OFFCURVE",
"872 1059.667 OFFCURVE",
"872 1119 CURVE SMOOTH",
"872 1173.667 OFFCURVE",
"863.667 1224.833 OFFCURVE",
"847 1272.5 CURVE SMOOTH",
"830.333 1320.167 OFFCURVE",
"809.333 1364 OFFCURVE",
"784 1404 CURVE SMOOTH",
"778 1414 OFFCURVE",
"776.833 1423 OFFCURVE",
"780.5 1431 CURVE SMOOTH",
"784.167 1439 OFFCURVE",
"792.333 1443 OFFCURVE",
"805 1443 CURVE SMOOTH",
"936 1443 LINE SMOOTH",
"945.333 1443 OFFCURVE",
"953.333 1441.333 OFFCURVE",
"960 1438 CURVE SMOOTH",
"966.667 1434.667 OFFCURVE",
"972.333 1428.333 OFFCURVE",
"977 1419 CURVE",
"1001 1377 OFFCURVE",
"1019.833 1330.333 OFFCURVE",
"1033.5 1279 CURVE SMOOTH",
"1047.167 1227.667 OFFCURVE",
"1054 1176 OFFCURVE",
"1054 1124 CURVE SMOOTH",
"1054 1030.667 OFFCURVE",
"1032.833 949.833 OFFCURVE",
"990.5 881.5 CURVE SMOOTH",
"948.167 813.167 OFFCURVE",
"890.667 760.333 OFFCURVE",
"818 723 CURVE SMOOTH",
"809.333 718.333 OFFCURVE",
"805.167 713.167 OFFCURVE",
"805.5 707.5 CURVE SMOOTH",
"805.833 701.833 OFFCURVE",
"809.667 696.667 OFFCURVE",
"817 692 CURVE SMOOTH",
"869 659.333 OFFCURVE",
"909.833 616.333 OFFCURVE",
"939.5 563 CURVE SMOOTH",
"969.167 509.667 OFFCURVE",
"984 450 OFFCURVE",
"984 384 CURVE",
"984 384 LINE"
);
}
);
width = 1124;
}
);
note = "four-deva";
unicode = 096A;
},
{
glyphname = "five-deva";
layers = (
{
layerId = "C0C2D967-6C35-4E4E-AAA8-D02C1745AD4B";
paths = (
{
closed = 1;
nodes = (
"411 356 OFFCURVE",
"327.833 377 OFFCURVE",
"259.5 419 CURVE SMOOTH",
"191.167 461 OFFCURVE",
"139.167 517 OFFCURVE",
"103.5 587 CURVE SMOOTH",
"67.833 657 OFFCURVE",
"50 734 OFFCURVE",
"50 818 CURVE SMOOTH",
"50 884.667 OFFCURVE",
"61.5 953.833 OFFCURVE",
"84.5 1025.5 CURVE SMOOTH",
"107.5 1097.167 OFFCURVE",
"141.333 1167.5 OFFCURVE",
"186 1236.5 CURVE SMOOTH",
"230.667 1305.5 OFFCURVE",
"285 1369.333 OFFCURVE",
"349 1428 CURVE SMOOTH",
"355.667 1434 OFFCURVE",
"362.167 1438 OFFCURVE",
"368.5 1440 CURVE SMOOTH",
"374.833 1442 OFFCURVE",
"382.333 1443 OFFCURVE",
"391 1443 CURVE SMOOTH",
"547 1443 LINE SMOOTH",
"559.667 1443 OFFCURVE",
"567.5 1438.333 OFFCURVE",
"570.5 1429 CURVE SMOOTH",
"573.5 1419.667 OFFCURVE",
"570.333 1410.667 OFFCURVE",
"561 1402 CURVE SMOOTH",
"501 1347.333 OFFCURVE",
"446 1288.833 OFFCURVE",
"396 1226.5 CURVE SMOOTH",
"346 1164.167 OFFCURVE",
"306.167 1099.333 OFFCURVE",
"276.5 1032 CURVE SMOOTH",
"246.833 964.667 OFFCURVE",
"232 895.667 OFFCURVE",
"232 825 CURVE SMOOTH",
"232 739.667 OFFCURVE",
"255.667 666.833 OFFCURVE",
"303 606.5 CURVE SMOOTH",
"350.333 546.167 OFFCURVE",
"420.667 516 OFFCURVE",
"514 516 CURVE SMOOTH",
"560.667 516 OFFCURVE",
"602.833 523.833 OFFCURVE",
"640.5 539.5 CURVE SMOOTH",
"678.167 555.167 OFFCURVE",
"709.667 576.333 OFFCURVE",
"735 603 CURVE SMOOTH",
"743 611.667 OFFCURVE",
"751.667 615.167 OFFCURVE",
"761 613.5 CURVE SMOOTH",
"770.333 611.833 OFFCURVE",
"776 605.333 OFFCURVE",
"778 594 CURVE SMOOTH",
"799 490 LINE SMOOTH",
"803.667 468.667 OFFCURVE",
"799 452.333 OFFCURVE",
"785 441 CURVE SMOOTH",
"753.667 415.667 OFFCURVE",
"714.667 395.167 OFFCURVE",
"668 379.5 CURVE SMOOTH",
"621.333 363.833 OFFCURVE",
"568.333 356 OFFCURVE",
"509 356 CURVE SMOOTH",
"509 356 LINE SMOOTH"
);
},
{
closed = 1;
nodes = (
"994 -28 OFFCURVE",
"982 -18.333 OFFCURVE",
"978 1 CURVE SMOOTH",
"811 833 LINE SMOOTH",
"806.333 857.667 OFFCURVE",
"817 870 OFFCURVE",
"843 870 CURVE SMOOTH",
"952 870 LINE SMOOTH",
"972 870 OFFCURVE",
"984 860 OFFCURVE",
"988 840 CURVE SMOOTH",
"1155 8 LINE SMOOTH",
"1159.667 -16 OFFCURVE",
"1149.667 -28 OFFCURVE",
"1125 -28 CURVE SMOOTH",
"1014 -28 LINE",
"1014 -28 LINE SMOOTH"
);
}
);
width = 1146;
}
);
note = "five-deva";
unicode = 096B;
},
{
glyphname = "six-deva";
layers = (
{
layerId = "C0C2D967-6C35-4E4E-AAA8-D02C1745AD4B";
paths = (
{
closed = 1;
nodes = (
"409 170 OFFCURVE",
"333.167 185 OFFCURVE",
"269.5 215 CURVE SMOOTH",
"205.833 245 OFFCURVE",
"156.667 286.333 OFFCURVE",
"122 339 CURVE SMOOTH",
"87.333 391.667 OFFCURVE",
"70 451.667 OFFCURVE",
"70 519 CURVE SMOOTH",
"70 592.333 OFFCURVE",
"91 651.167 OFFCURVE",
"133 695.5 CURVE SMOOTH",
"175 739.833 OFFCURVE",
"225.333 776.667 OFFCURVE",
"284 806 CURVE SMOOTH",
"292 810 OFFCURVE",
"296 815.333 OFFCURVE",
"296 822 CURVE SMOOTH",
"296 828.667 OFFCURVE",
"292 833.667 OFFCURVE",
"284 837 CURVE SMOOTH",
"219.333 866.333 OFFCURVE",
"168 904.333 OFFCURVE",
"130 951 CURVE SMOOTH",
"92 997.667 OFFCURVE",
"73 1052.333 OFFCURVE",
"73 1115 CURVE SMOOTH",
"73 1207 OFFCURVE",
"106 1285.167 OFFCURVE",
"172 1349.5 CURVE SMOOTH",
"238 1413.833 OFFCURVE",
"325.333 1451.667 OFFCURVE",
"434 1463 CURVE SMOOTH",
"457.333 1465 OFFCURVE",
"469 1454.667 OFFCURVE",
"469 1432 CURVE SMOOTH",
"469 1341 LINE SMOOTH",
"469 1331 OFFCURVE",
"466.5 1323.167 OFFCURVE",
"461.5 1317.5 CURVE SMOOTH",
"456.5 1311.833 OFFCURVE",
"449 1308 OFFCURVE",
"439 1306 CURVE SMOOTH",
"381 1295.333 OFFCURVE",
"335.667 1272.667 OFFCURVE",
"303 1238 CURVE SMOOTH",
"270.333 1203.333 OFFCURVE",
"254 1158.333 OFFCURVE",
"254 1103 CURVE SMOOTH",
"254 1059 OFFCURVE",
"265.667 1021 OFFCURVE",
"289 989 CURVE SMOOTH",
"312.333 957 OFFCURVE",
"343.833 932.5 OFFCURVE",
"383.5 915.5 CURVE SMOOTH",
"423.167 898.5 OFFCURVE",
"467.333 890 OFFCURVE",
"516 890 CURVE SMOOTH",
"686 890 LINE SMOOTH",
"708 890 OFFCURVE",
"719 879.333 OFFCURVE",
"719 858 CURVE SMOOTH",
"719 771 LINE SMOOTH",
"719 749 OFFCURVE",
"708 738 OFFCURVE",
"686 738 CURVE SMOOTH",
"517 738 LINE SMOOTH",
"444.333 738 OFFCURVE",
"382 722 OFFCURVE",
"330 690 CURVE SMOOTH",
"278 658 OFFCURVE",
"252 605.333 OFFCURVE",
"252 532 CURVE SMOOTH",
"252 464 OFFCURVE",
"279 413.333 OFFCURVE",
"333 380 CURVE SMOOTH",
"387 346.667 OFFCURVE",
"451.333 330 OFFCURVE",
"526 330 CURVE SMOOTH",
"567.333 330 OFFCURVE",
"602.333 334 OFFCURVE",
"631 342 CURVE SMOOTH",
"659.667 350 OFFCURVE",
"684 358.667 OFFCURVE",
"704 368 CURVE SMOOTH",
"726.667 379.333 OFFCURVE",
"740.667 373 OFFCURVE",
"746 349 CURVE SMOOTH",
"764 264 LINE SMOOTH",
"768 244 OFFCURVE",
"761.333 230 OFFCURVE",
"744 222 CURVE SMOOTH",
"715.333 209.333 OFFCURVE",
"681.833 197.5 OFFCURVE",
"643.5 186.5 CURVE SMOOTH",
"605.167 175.5 OFFCURVE",
"556.333 170 OFFCURVE",
"497 170 CURVE SMOOTH",
"497 170 LINE SMOOTH"
);
},
{
closed = 1;
nodes = (
"784.333 1135 OFFCURVE",
"773.333 1137.333 OFFCURVE",
"766 1142 CURVE SMOOTH",
"758.667 1146.667 OFFCURVE",
"752.667 1155.667 OFFCURVE",
"748 1169 CURVE SMOOTH",
"738 1199.667 OFFCURVE",
"719.5 1226.833 OFFCURVE",
"692.5 1250.5 CURVE SMOOTH",
"665.5 1274.167 OFFCURVE",
"628 1292 OFFCURVE",
"580 1304 CURVE SMOOTH",
"570 1306.667 OFFCURVE",
"562.333 1311 OFFCURVE",
"557 1317 CURVE SMOOTH",
"551.667 1323 OFFCURVE",
"549 1331 OFFCURVE",
"549 1341 CURVE SMOOTH",
"549 1430 LINE SMOOTH",
"549 1454 OFFCURVE",
"560.667 1464.333 OFFCURVE",
"584 1461 CURVE SMOOTH",
"678.667 1447 OFFCURVE",
"754.333 1413.667 OFFCURVE",
"811 1361 CURVE SMOOTH",
"867.667 1308.333 OFFCURVE",
"905 1245.333 OFFCURVE",
"923 1172 CURVE SMOOTH",
"925.667 1161.333 OFFCURVE",
"924.333 1152.5 OFFCURVE",
"919 1145.5 CURVE SMOOTH",
"913.667 1138.5 OFFCURVE",
"905.333 1135 OFFCURVE",
"894 1135 CURVE SMOOTH",
"799 1135 LINE",
"799 1135 LINE SMOOTH"
);
},
{
closed = 1;
nodes = (
"895 -24 OFFCURVE",
"883 -14.333 OFFCURVE",
"879 5 CURVE SMOOTH",
"792 403 LINE SMOOTH",
"786.667 427 OFFCURVE",
"796.333 439 OFFCURVE",
"821 439 CURVE SMOOTH",
"927 439 LINE SMOOTH",
"947 439 OFFCURVE",
"959 429.333 OFFCURVE",
"963 410 CURVE SMOOTH",
"1050 12 LINE SMOOTH",
"1055.333 -12 OFFCURVE",
"1045.667 -24 OFFCURVE",
"1021 -24 CURVE SMOOTH",
"915 -24 LINE",
"915 -24 LINE SMOOTH"
);
}
);
width = 1043;
}
);
note = "six-deva";
unicode = 096C;
},
{
glyphname = "seven-deva";
layers = (
{
layerId = "C0C2D967-6C35-4E4E-AAA8-D02C1745AD4B";
paths = (
{
closed = 1;
nodes = (
"519.667 13.667 OFFCURVE",
"419.167 51.167 OFFCURVE",
"335.5 115.5 CURVE SMOOTH",
"251.833 179.833 OFFCURVE",
"188 264.333 OFFCURVE",
"144 369 CURVE SMOOTH",
"100 473.667 OFFCURVE",
"78 591 OFFCURVE",
"78 721 CURVE SMOOTH",
"78 841.667 OFFCURVE",
"96.167 963.5 OFFCURVE",
"132.5 1086.5 CURVE SMOOTH",
"168.833 1209.5 OFFCURVE",
"219 1321.333 OFFCURVE",
"283 1422 CURVE",
"288.333 1429.333 OFFCURVE",
"294.167 1434.667 OFFCURVE",
"300.5 1438 CURVE SMOOTH",
"306.833 1441.333 OFFCURVE",
"314.333 1443 OFFCURVE",
"323 1443 CURVE SMOOTH",
"456 1443 LINE SMOOTH",
"467.333 1443 OFFCURVE",
"475.5 1439 OFFCURVE",
"480.5 1431 CURVE SMOOTH",
"485.5 1423 OFFCURVE",
"484.333 1413.667 OFFCURVE",
"477 1403 CURVE",
"406.333 1288.333 OFFCURVE",
"352.5 1175.333 OFFCURVE",
"315.5 1064 CURVE SMOOTH",
"278.5 952.667 OFFCURVE",
"260 842.667 OFFCURVE",
"260 734 CURVE SMOOTH",
"260 631.333 OFFCURVE",
"275.667 540.333 OFFCURVE",
"307 461 CURVE SMOOTH",
"338.333 381.667 OFFCURVE",
"382.667 317.667 OFFCURVE",
"440 269 CURVE SMOOTH",
"497.333 220.333 OFFCURVE",
"564.667 190 OFFCURVE",
"642 178 CURVE SMOOTH",
"662.667 174.667 OFFCURVE",
"673 163 OFFCURVE",
"673 143 CURVE SMOOTH",
"673 35 LINE SMOOTH",
"673 11.667 OFFCURVE",
"661 1 OFFCURVE",
"637 3 CURVE",
"637 3 LINE"
);
},
{
closed = 1;
nodes = (
"765.333 2.667 OFFCURVE",
"753 13 OFFCURVE",
"753 37 CURVE SMOOTH",
"753 143 LINE SMOOTH",
"753 162.333 OFFCURVE",
"763.333 173.667 OFFCURVE",
"784 177 CURVE SMOOTH",
"843.333 185.667 OFFCURVE",
"897.333 205 OFFCURVE",
"946 235 CURVE SMOOTH",
"994.667 265 OFFCURVE",
"1036.833 305.167 OFFCURVE",
"1072.5 355.5 CURVE SMOOTH",
"1108.167 405.833 OFFCURVE",
"1135 465 OFFCURVE",
"1153 533 CURVE SMOOTH",
"1155.667 542.333 OFFCURVE",
"1153.833 548.333 OFFCURVE",
"1147.5 551 CURVE SMOOTH",
"1141.167 553.667 OFFCURVE",
"1135 551.333 OFFCURVE",
"1129 544 CURVE SMOOTH",
"1104.333 514 OFFCURVE",
"1071 490 OFFCURVE",
"1029 472 CURVE SMOOTH",
"987 454 OFFCURVE",
"938.333 445 OFFCURVE",
"883 445 CURVE SMOOTH",
"809 445 OFFCURVE",
"743 461.167 OFFCURVE",
"685 493.5 CURVE SMOOTH",
"627 525.833 OFFCURVE",
"581.333 570.167 OFFCURVE",
"548 626.5 CURVE SMOOTH",
"514.667 682.833 OFFCURVE",
"498 747 OFFCURVE",
"498 819 CURVE SMOOTH",
"498 919.667 OFFCURVE",
"529.167 1004.833 OFFCURVE",
"591.5 1074.5 CURVE SMOOTH",
"653.833 1144.167 OFFCURVE",
"733.333 1186.667 OFFCURVE",
"830 1202 CURVE SMOOTH",
"853.333 1205.333 OFFCURVE",
"865 1195 OFFCURVE",
"865 1171 CURVE SMOOTH",
"865 1073 LINE SMOOTH",
"865 1063.667 OFFCURVE",
"862.5 1056.167 OFFCURVE",
"857.5 1050.5 CURVE SMOOTH",
"852.5 1044.833 OFFCURVE",
"845.333 1040.333 OFFCURVE",
"836 1037 CURVE SMOOTH",
"790 1022.333 OFFCURVE",
"752.5 995.167 OFFCURVE",
"723.5 955.5 CURVE SMOOTH",
"694.5 915.833 OFFCURVE",
"680 869.667 OFFCURVE",
"680 817 CURVE SMOOTH",
"680 775 OFFCURVE",
"689.667 737.167 OFFCURVE",
"709 703.5 CURVE SMOOTH",
"728.333 669.833 OFFCURVE",
"755 643.333 OFFCURVE",
"789 624 CURVE SMOOTH",
"823 604.667 OFFCURVE",
"862 595 OFFCURVE",
"906 595 CURVE SMOOTH",
"950.667 595 OFFCURVE",
"990.167 604.5 OFFCURVE",
"1024.5 623.5 CURVE SMOOTH",
"1058.833 642.5 OFFCURVE",
"1086 668.833 OFFCURVE",
"1106 702.5 CURVE SMOOTH",
"1126 736.167 OFFCURVE",
"1136 774.667 OFFCURVE",
"1136 818 CURVE SMOOTH",
"1136 871.333 OFFCURVE",
"1120.833 918.167 OFFCURVE",
"1090.5 958.5 CURVE SMOOTH",
"1060.167 998.833 OFFCURVE",
"1021.333 1025.667 OFFCURVE",
"974 1039 CURVE SMOOTH",
"964.667 1041.667 OFFCURVE",
"957.5 1045.833 OFFCURVE",
"952.5 1051.5 CURVE SMOOTH",
"947.5 1057.167 OFFCURVE",
"945 1065 OFFCURVE",
"945 1075 CURVE SMOOTH",
"945 1172 LINE SMOOTH",
"945 1196 OFFCURVE",
"956.667 1206.333 OFFCURVE",
"980 1203 CURVE SMOOTH",
"1050 1192.333 OFFCURVE",
"1111.167 1166.167 OFFCURVE",
"1163.5 1124.5 CURVE SMOOTH",
"1215.833 1082.833 OFFCURVE",
"1256.667 1025.333 OFFCURVE",
"1286 952 CURVE SMOOTH",
"1315.333 878.667 OFFCURVE",
"1330 789.333 OFFCURVE",
"1330 684 CURVE SMOOTH",
"1330 565.333 OFFCURVE",
"1308.667 457.167 OFFCURVE",
"1266 359.5 CURVE SMOOTH",
"1223.333 261.833 OFFCURVE",
"1161.667 181.833 OFFCURVE",
"1081 119.5 CURVE SMOOTH",
"1000.333 57.167 OFFCURVE",
"903.333 19.333 OFFCURVE",
"790 6 CURVE",
"790 6 LINE"
);
}
);
width = 1400;
}
);
note = "seven-deva";
unicode = 096D;
},
{
glyphname = "eight-deva";
layers = (
{
layerId = "C0C2D967-6C35-4E4E-AAA8-D02C1745AD4B";
paths = (
{
closed = 1;
nodes = (
"380.333 13.333 OFFCURVE",
"306.833 37.5 OFFCURVE",
"244.5 76.5 CURVE SMOOTH",
"182.167 115.5 OFFCURVE",
"134.167 166 OFFCURVE",
"100.5 228 CURVE SMOOTH",
"66.833 290 OFFCURVE",
"50 360 OFFCURVE",
"50 438 CURVE SMOOTH",
"50 499.333 OFFCURVE",
"60.667 560.167 OFFCURVE",
"82 620.5 CURVE SMOOTH",
"103.333 680.833 OFFCURVE",
"129.667 738.833 OFFCURVE",
"161 794.5 CURVE SMOOTH",
"192.333 850.167 OFFCURVE",
"222.667 901.333 OFFCURVE",
"252 948 CURVE SMOOTH",
"552 1422 LINE SMOOTH",
"557.333 1430 OFFCURVE",
"563 1435.5 OFFCURVE",
"569 1438.5 CURVE SMOOTH",
"575 1441.5 OFFCURVE",
"582.333 1443 OFFCURVE",
"591 1443 CURVE SMOOTH",
"724 1443 LINE SMOOTH",
"736.667 1443 OFFCURVE",
"744.833 1438.5 OFFCURVE",
"748.5 1429.5 CURVE SMOOTH",
"752.167 1420.5 OFFCURVE",
"751 1411.333 OFFCURVE",
"745 1402 CURVE SMOOTH",
"389 842 LINE SMOOTH",
"348.333 777.333 OFFCURVE",
"312 711.5 OFFCURVE",
"280 644.5 CURVE SMOOTH",
"248 577.5 OFFCURVE",
"232 510 OFFCURVE",
"232 442 CURVE SMOOTH",
"232 402 OFFCURVE",
"240.167 362.667 OFFCURVE",
"256.5 324 CURVE SMOOTH",
"272.833 285.333 OFFCURVE",
"298.5 251.833 OFFCURVE",
"333.5 223.5 CURVE SMOOTH",
"368.5 195.167 OFFCURVE",
"413.667 176 OFFCURVE",
"469 166 CURVE",
"479 164.667 OFFCURVE",
"486.667 161 OFFCURVE",
"492 155 CURVE SMOOTH",
"497.333 149 OFFCURVE",
"500 141 OFFCURVE",
"500 131 CURVE SMOOTH",
"500 35 LINE SMOOTH",
"500 11 OFFCURVE",
"488.333 0.667 OFFCURVE",
"465 4 CURVE",
"465 4 LINE"
);
},
{
closed = 1;
nodes = (
"591.667 2 OFFCURVE",
"580 12.667 OFFCURVE",
"580 36 CURVE SMOOTH",
"580 131 LINE SMOOTH",
"580 141 OFFCURVE",
"582.667 149 OFFCURVE",
"588 155 CURVE SMOOTH",
"593.333 161 OFFCURVE",
"601 164.667 OFFCURVE",
"611 166 CURVE",
"670.333 177.333 OFFCURVE",
"719.833 201 OFFCURVE",
"759.5 237 CURVE SMOOTH",
"799.167 273 OFFCURVE",
"824.333 317 OFFCURVE",
"835 369 CURVE SMOOTH",
"837 379 OFFCURVE",
"840.833 386.833 OFFCURVE",
"846.5 392.5 CURVE SMOOTH",
"852.167 398.167 OFFCURVE",
"860 401 OFFCURVE",
"870 401 CURVE SMOOTH",
"979 401 LINE SMOOTH",
"988.333 401 OFFCURVE",
"996.167 398.667 OFFCURVE",
"1002.5 394 CURVE SMOOTH",
"1008.833 389.333 OFFCURVE",
"1011 380 OFFCURVE",
"1009 366 CURVE SMOOTH",
"1001 302.667 OFFCURVE",
"979 245.333 OFFCURVE",
"943 194 CURVE SMOOTH",
"907 142.667 OFFCURVE",
"860.667 100.5 OFFCURVE",
"804 67.5 CURVE SMOOTH",
"747.333 34.5 OFFCURVE",
"684.333 13.333 OFFCURVE",
"615 4 CURVE",
"615 4 LINE"
);
}
);
width = 1041;
}
);
note = "eight-deva";
unicode = 096E;
},
{
glyphname = "nine-deva";
layers = (
{
layerId = "C0C2D967-6C35-4E4E-AAA8-D02C1745AD4B";
paths = (
{
closed = 1;
nodes = (
"614 -24 OFFCURVE",
"603 -13 OFFCURVE",
"603 9 CURVE SMOOTH",
"603 43.667 OFFCURVE",
"600.833 75.667 OFFCURVE",
"596.5 105 CURVE SMOOTH",
"592.167 134.333 OFFCURVE",
"583.167 164.167 OFFCURVE",
"569.5 194.5 CURVE SMOOTH",
"555.833 224.833 OFFCURVE",
"534.667 259.333 OFFCURVE",
"506 298 CURVE SMOOTH",
"222 684 LINE SMOOTH",
"186.667 732.667 OFFCURVE",
"157.667 778.5 OFFCURVE",
"135 821.5 CURVE SMOOTH",
"112.333 864.5 OFFCURVE",
"95.833 906 OFFCURVE",
"85.5 946 CURVE SMOOTH",
"75.167 986 OFFCURVE",
"70 1026 OFFCURVE",
"70 1066 CURVE SMOOTH",
"70 1132 OFFCURVE",
"83.833 1193 OFFCURVE",
"111.5 1249 CURVE SMOOTH",
"139.167 1305 OFFCURVE",
"178.667 1351.833 OFFCURVE",
"230 1389.5 CURVE SMOOTH",
"281.333 1427.167 OFFCURVE",
"342.333 1451.333 OFFCURVE",
"413 1462 CURVE SMOOTH",
"436.333 1465.333 OFFCURVE",
"448 1455 OFFCURVE",
"448 1431 CURVE SMOOTH",
"448 1335 LINE SMOOTH",
"448 1316.333 OFFCURVE",
"438.333 1304.333 OFFCURVE",
"419 1299 CURVE SMOOTH",
"369.667 1285.667 OFFCURVE",
"329.5 1258.333 OFFCURVE",
"298.5 1217 CURVE SMOOTH",
"267.5 1175.667 OFFCURVE",
"252 1127.667 OFFCURVE",
"252 1073 CURVE SMOOTH",
"252 1029 OFFCURVE",
"262.167 989.833 OFFCURVE",
"282.5 955.5 CURVE SMOOTH",
"302.833 921.167 OFFCURVE",
"330.833 894.167 OFFCURVE",
"366.5 874.5 CURVE SMOOTH",
"402.167 854.833 OFFCURVE",
"442.333 845 OFFCURVE",
"487 845 CURVE SMOOTH",
"532.333 845 OFFCURVE",
"572.333 854.833 OFFCURVE",
"607 874.5 CURVE SMOOTH",
"641.667 894.167 OFFCURVE",
"668.833 921.167 OFFCURVE",
"688.5 955.5 CURVE SMOOTH",
"708.167 989.833 OFFCURVE",
"718 1028.667 OFFCURVE",
"718 1072 CURVE SMOOTH",
"718 1126.667 OFFCURVE",
"703 1174.167 OFFCURVE",
"673 1214.5 CURVE SMOOTH",
"643 1254.833 OFFCURVE",
"604.333 1282.333 OFFCURVE",
"557 1297 CURVE SMOOTH",
"537.667 1303 OFFCURVE",
"528 1315.333 OFFCURVE",
"528 1334 CURVE SMOOTH",
"528 1431 LINE SMOOTH",
"528 1455 OFFCURVE",
"539.667 1465.333 OFFCURVE",
"563 1462 CURVE SMOOTH",
"628.333 1452 OFFCURVE",
"686.333 1429.167 OFFCURVE",
"737 1393.5 CURVE SMOOTH",
"787.667 1357.833 OFFCURVE",
"827.5 1313 OFFCURVE",
"856.5 1259 CURVE SMOOTH",
"885.5 1205 OFFCURVE",
"900 1144.667 OFFCURVE",
"900 1078 CURVE SMOOTH",
"900 1006 OFFCURVE",
"884 942.167 OFFCURVE",
"852 886.5 CURVE SMOOTH",
"820 830.833 OFFCURVE",
"776.667 787 OFFCURVE",
"722 755 CURVE SMOOTH",
"667.333 723 OFFCURVE",
"606 707 OFFCURVE",
"538 707 CURVE SMOOTH",
"513.333 707 OFFCURVE",
"492.167 709.333 OFFCURVE",
"474.5 714 CURVE SMOOTH",
"456.833 718.667 OFFCURVE",
"438.667 724.667 OFFCURVE",
"420 732 CURVE SMOOTH",
"412 735.333 OFFCURVE",
"406 734.667 OFFCURVE",
"402 730 CURVE SMOOTH",
"398 725.333 OFFCURVE",
"398.333 719.333 OFFCURVE",
"403 712 CURVE",
"404.333 710.667 OFFCURVE",
"405.667 709 OFFCURVE",
"407 707 CURVE SMOOTH",
"408.333 705 OFFCURVE",
"409.667 703 OFFCURVE",
"411 701 CURVE",
"654 384 LINE SMOOTH",
"689.333 338 OFFCURVE",
"715.833 295 OFFCURVE",
"733.5 255 CURVE SMOOTH",
"751.167 215 OFFCURVE",
"762.833 175.333 OFFCURVE",
"768.5 136 CURVE SMOOTH",
"774.167 96.667 OFFCURVE",
"777 54.333 OFFCURVE",
"777 9 CURVE SMOOTH",
"777 -13 OFFCURVE",
"766.333 -24 OFFCURVE",
"745 -24 CURVE SMOOTH",
"636 -24 LINE",
"636 -24 LINE SMOOTH"
);
}
);
width = 946;
}
);
note = "nine-deva";
unicode = 096F;
},
{
glyphname = "zero-ar";
layers = (
{
layerId = "C0C2D967-6C35-4E4E-AAA8-D02C1745AD4B";
paths = (
{
closed = 1;
nodes = (
"233 563 LINE",
"90 707 LINE SMOOTH",
"70 727 OFFCURVE",
"70 747 OFFCURVE",
"90 767 CURVE SMOOTH",
"233 909 LINE SMOOTH",
"253 929 OFFCURVE",
"273 929 OFFCURVE",
"293 909 CURVE SMOOTH",
"436 765 LINE SMOOTH",
"456 745 OFFCURVE",
"456 725 OFFCURVE",
"436 705 CURVE SMOOTH",
"293 563 LINE SMOOTH",
"272.333 542.333 OFFCURVE",
"252.333 542.333 OFFCURVE",
"233 563 CURVE"
);
}
);
width = 526;
}
);
note = "zero-ar";
unicode = 0660;
},
{
glyphname = "one-ar";
layers = (
{
layerId = "C0C2D967-6C35-4E4E-AAA8-D02C1745AD4B";
paths = (
{
closed = 1;
nodes = (
"275.667 0 OFFCURVE",
"265 10.667 OFFCURVE",
"263 32 CURVE SMOOTH",
"112 1409 LINE SMOOTH",
"110 1431.667 OFFCURVE",
"120 1443 OFFCURVE",
"142 1443 CURVE SMOOTH",
"248 1443 LINE SMOOTH",
"267.333 1443 OFFCURVE",
"278 1434 OFFCURVE",
"280 1416 CURVE SMOOTH",
"432 32 LINE SMOOTH",
"434 10.667 OFFCURVE",
"424 0 OFFCURVE",
"402 0 CURVE SMOOTH",
"295 0 LINE",
"295 0 LINE SMOOTH"
);
}
);
width = 539;
}
);
note = "one-ar";
unicode = 0661;
},
{
glyphname = "two-ar";
layers = (
{
layerId = "C0C2D967-6C35-4E4E-AAA8-D02C1745AD4B";
paths = (
{
closed = 1;
nodes = (
"280.667 0 OFFCURVE",
"270 10.667 OFFCURVE",
"268 32 CURVE SMOOTH",
"107 1409 LINE SMOOTH",
"103.667 1431.667 OFFCURVE",
"113.667 1443 OFFCURVE",
"137 1443 CURVE SMOOTH",
"243 1443 LINE SMOOTH",
"262.333 1443 OFFCURVE",
"273 1434 OFFCURVE",
"275 1416 CURVE SMOOTH",
"437 32 LINE SMOOTH",
"439 10.667 OFFCURVE",
"429 0 OFFCURVE",
"407 0 CURVE SMOOTH",
"300 0 LINE",
"300 0 LINE SMOOTH"
);
},
{
closed = 1;
nodes = (
"598.667 873 OFFCURVE",
"563.833 877 OFFCURVE",
"531.5 885 CURVE SMOOTH",
"499.167 893 OFFCURVE",
"467.667 904.333 OFFCURVE",
"437 919 CURVE SMOOTH",
"420.333 927 OFFCURVE",
"411 940 OFFCURVE",
"409 958 CURVE SMOOTH",
"388 1135 LINE SMOOTH",
"386.667 1146.333 OFFCURVE",
"390.167 1154.167 OFFCURVE",
"398.5 1158.5 CURVE SMOOTH",
"406.833 1162.833 OFFCURVE",
"415.333 1161 OFFCURVE",
"424 1153 CURVE SMOOTH",
"454.667 1125.667 OFFCURVE",
"486.833 1105.5 OFFCURVE",
"520.5 1092.5 CURVE SMOOTH",
"554.167 1079.5 OFFCURVE",
"591.333 1073 OFFCURVE",
"632 1073 CURVE SMOOTH",
"717.333 1073 OFFCURVE",
"783 1102.333 OFFCURVE",
"829 1161 CURVE SMOOTH",
"875 1219.667 OFFCURVE",
"898 1302.667 OFFCURVE",
"898 1410 CURVE SMOOTH",
"898 1432 OFFCURVE",
"909 1443 OFFCURVE",
"931 1443 CURVE SMOOTH",
"1021 1443 LINE SMOOTH",
"1043 1443 OFFCURVE",
"1054 1432 OFFCURVE",
"1054 1410 CURVE SMOOTH",
"1054 1312 OFFCURVE",
"1039.667 1222.333 OFFCURVE",
"1011 1141 CURVE SMOOTH",
"982.333 1059.667 OFFCURVE",
"937.167 994.667 OFFCURVE",
"875.5 946 CURVE SMOOTH",
"813.833 897.333 OFFCURVE",
"734 873 OFFCURVE",
"636 873 CURVE SMOOTH",
"636 873 LINE SMOOTH"
);
}
);
width = 1128;
}
);
note = "two-ar";
unicode = 0662;
},
{
glyphname = "three-ar";
layers = (
{
layerId = "C0C2D967-6C35-4E4E-AAA8-D02C1745AD4B";
paths = (
{
closed = 1;
nodes = (
"280.667 0 OFFCURVE",
"270 10.667 OFFCURVE",
"268 32 CURVE SMOOTH",
"107 1409 LINE SMOOTH",
"103.667 1431.667 OFFCURVE",
"113.667 1443 OFFCURVE",
"137 1443 CURVE SMOOTH",
"243 1443 LINE SMOOTH",
"262.333 1443 OFFCURVE",
"273 1434 OFFCURVE",
"275 1416 CURVE SMOOTH",
"437 32 LINE SMOOTH",
"439 10.667 OFFCURVE",
"429 0 OFFCURVE",
"407 0 CURVE SMOOTH",
"300 0 LINE",
"300 0 LINE SMOOTH"
);
},
{
closed = 1;
nodes = (
"495 865 OFFCURVE",
"485.167 865.5 OFFCURVE",
"475.5 866.5 CURVE SMOOTH",
"465.833 867.5 OFFCURVE",
"456.333 868.667 OFFCURVE",
"447 870 CURVE SMOOTH",
"427.667 873.333 OFFCURVE",
"417 885 OFFCURVE",
"415 905 CURVE SMOOTH",
"398 1049 LINE SMOOTH",
"396.667 1058.333 OFFCURVE",
"398.833 1065.5 OFFCURVE",
"404.5 1070.5 CURVE SMOOTH",
"410.167 1075.5 OFFCURVE",
"419 1076.333 OFFCURVE",
"431 1073 CURVE",
"439 1070.333 OFFCURVE",
"447.333 1068.333 OFFCURVE",
"456 1067 CURVE SMOOTH",
"464.667 1065.667 OFFCURVE",
"473.333 1065 OFFCURVE",
"482 1065 CURVE SMOOTH",
"537.333 1065 OFFCURVE",
"576.667 1088.333 OFFCURVE",
"600 1135 CURVE SMOOTH",
"623.333 1181.667 OFFCURVE",
"635 1247.333 OFFCURVE",
"635 1332 CURVE SMOOTH",
"635 1410 LINE SMOOTH",
"635 1432 OFFCURVE",
"646 1443 OFFCURVE",
"668 1443 CURVE SMOOTH",
"752 1443 LINE SMOOTH",
"774 1443 OFFCURVE",
"785 1432 OFFCURVE",
"785 1410 CURVE SMOOTH",
"785 1300 LINE SMOOTH",
"785 1212 OFFCURVE",
"774.167 1135.5 OFFCURVE",
"752.5 1070.5 CURVE SMOOTH",
"730.833 1005.5 OFFCURVE",
"699.167 955 OFFCURVE",
"657.5 919 CURVE SMOOTH",
"615.833 883 OFFCURVE",
"565 865 OFFCURVE",
"505 865 CURVE SMOOTH",
"505 865 LINE SMOOTH"
);
},
{
closed = 1;
nodes = (
"922.333 865 OFFCURVE",
"893.667 869.167 OFFCURVE",
"867 877.5 CURVE SMOOTH",
"840.333 885.833 OFFCURVE",
"816.333 897.667 OFFCURVE",
"795 913 CURVE SMOOTH",
"787 919 OFFCURVE",
"782.667 925.833 OFFCURVE",
"782 933.5 CURVE SMOOTH",
"781.333 941.167 OFFCURVE",
"783.333 949.333 OFFCURVE",
"788 958 CURVE SMOOTH",
"797.333 975.333 OFFCURVE",
"806 993 OFFCURVE",
"814 1011 CURVE SMOOTH",
"822 1029 OFFCURVE",
"828.667 1048 OFFCURVE",
"834 1068 CURVE",
"840 1087.333 OFFCURVE",
"853.333 1092 OFFCURVE",
"874 1082 CURVE",
"884.667 1077.333 OFFCURVE",
"895.833 1073.333 OFFCURVE",
"907.5 1070 CURVE SMOOTH",
"919.167 1066.667 OFFCURVE",
"931.333 1065 OFFCURVE",
"944 1065 CURVE SMOOTH",
"999.333 1065 OFFCURVE",
"1038.667 1088.333 OFFCURVE",
"1062 1135 CURVE SMOOTH",
"1085.333 1181.667 OFFCURVE",
"1097 1247.333 OFFCURVE",
"1097 1332 CURVE SMOOTH",
"1097 1345.333 OFFCURVE",
"1096.833 1357.5 OFFCURVE",
"1096.5 1368.5 CURVE SMOOTH",
"1096.167 1379.5 OFFCURVE",
"1095.333 1393.333 OFFCURVE",
"1094 1410 CURVE SMOOTH",
"1092 1432 OFFCURVE",
"1102.333 1443 OFFCURVE",
"1125 1443 CURVE SMOOTH",
"1203 1443 LINE SMOOTH",
"1224.333 1443 OFFCURVE",
"1236.333 1432 OFFCURVE",
"1239 1410 CURVE",
"1241.667 1393.333 OFFCURVE",
"1243.667 1377 OFFCURVE",
"1245 1361 CURVE SMOOTH",
"1246.333 1345 OFFCURVE",
"1247 1324.667 OFFCURVE",
"1247 1300 CURVE SMOOTH",
"1247 1212 OFFCURVE",
"1235.833 1135.5 OFFCURVE",
"1213.5 1070.5 CURVE SMOOTH",
"1191.167 1005.5 OFFCURVE",
"1158.333 955 OFFCURVE",
"1115 919 CURVE SMOOTH",
"1071.667 883 OFFCURVE",
"1017.667 865 OFFCURVE",
"953 865 CURVE SMOOTH",
"953 865 LINE SMOOTH"
);
}
);
width = 1325;
}
);
note = "three-ar";
unicode = 0663;
},
{
glyphname = "four-ar";
layers = (
{
layerId = "C0C2D967-6C35-4E4E-AAA8-D02C1745AD4B";
paths = (
{
closed = 1;
nodes = (
"383.667 -11.333 OFFCURVE",
"319 7.167 OFFCURVE",
"267 37.5 CURVE SMOOTH",
"215 67.833 OFFCURVE",
"175.833 107 OFFCURVE",
"149.5 155 CURVE SMOOTH",
"123.167 203 OFFCURVE",
"110 256 OFFCURVE",
"110 314 CURVE SMOOTH",
"110 390 OFFCURVE",
"132.5 460 OFFCURVE",
"177.5 524 CURVE SMOOTH",
"222.5 588 OFFCURVE",
"289.667 642.667 OFFCURVE",
"379 688 CURVE SMOOTH",
"387 692 OFFCURVE",
"391 697.667 OFFCURVE",
"391 705 CURVE SMOOTH",
"391 712.333 OFFCURVE",
"386.667 717 OFFCURVE",
"378 719 CURVE SMOOTH",
"324.667 732.333 OFFCURVE",
"278.5 751 OFFCURVE",
"239.5 775 CURVE SMOOTH",
"200.5 799 OFFCURVE",
"170.5 828.833 OFFCURVE",
"149.5 864.5 CURVE SMOOTH",
"128.5 900.167 OFFCURVE",
"118 942.333 OFFCURVE",
"118 991 CURVE SMOOTH",
"118 1051.667 OFFCURVE",
"136.333 1107.667 OFFCURVE",
"173 1159 CURVE SMOOTH",
"209.667 1210.333 OFFCURVE",
"264.333 1258 OFFCURVE",
"337 1302 CURVE SMOOTH",
"347.667 1308.667 OFFCURVE",
"357 1309.833 OFFCURVE",
"365 1305.5 CURVE SMOOTH",
"373 1301.167 OFFCURVE",
"377 1292.333 OFFCURVE",
"377 1279 CURVE SMOOTH",
"377 1147 LINE SMOOTH",
"377 1138.333 OFFCURVE",
"375.5 1130.833 OFFCURVE",
"372.5 1124.5 CURVE SMOOTH",
"369.5 1118.167 OFFCURVE",
"364.333 1112 OFFCURVE",
"357 1106 CURVE SMOOTH",
"311 1069.333 OFFCURVE",
"288 1033.333 OFFCURVE",
"288 998 CURVE SMOOTH",
"288 959.333 OFFCURVE",
"307.167 928.667 OFFCURVE",
"345.5 906 CURVE SMOOTH",
"383.833 883.333 OFFCURVE",
"433.833 866.667 OFFCURVE",
"495.5 856 CURVE SMOOTH",
"557.167 845.333 OFFCURVE",
"622.667 838.667 OFFCURVE",
"692 836 CURVE",
"700.667 836 OFFCURVE",
"705 831.667 OFFCURVE",
"705 823 CURVE SMOOTH",
"705 682 LINE SMOOTH",
"705 674.667 OFFCURVE",
"701.667 669.667 OFFCURVE",
"695 667 CURVE SMOOTH",
"553.667 608.333 OFFCURVE",
"449.167 552.667 OFFCURVE",
"381.5 500 CURVE SMOOTH",
"313.833 447.333 OFFCURVE",
"280 390.667 OFFCURVE",
"280 330 CURVE SMOOTH",
"280 288 OFFCURVE",
"295.667 254.833 OFFCURVE",
"327 230.5 CURVE SMOOTH",
"358.333 206.167 OFFCURVE",
"404 190.667 OFFCURVE",
"464 184 CURVE",
"485.333 180.667 OFFCURVE",
"496 169 OFFCURVE",
"496 149 CURVE SMOOTH",
"496 14 LINE SMOOTH",
"496 -9.333 OFFCURVE",
"484.333 -20 OFFCURVE",
"461 -18 CURVE",
"461 -18 LINE"
);
},
{
closed = 1;
nodes = (
"587.333 -18 OFFCURVE",
"576 -7.333 OFFCURVE",
"576 16 CURVE SMOOTH",
"576 149 LINE SMOOTH",
"576 169.667 OFFCURVE",
"586.667 181 OFFCURVE",
"608 183 CURVE SMOOTH",
"650.667 186.333 OFFCURVE",
"693.167 191.667 OFFCURVE",
"735.5 199 CURVE SMOOTH",
"777.833 206.333 OFFCURVE",
"820.333 216.333 OFFCURVE",
"863 229 CURVE SMOOTH",
"873 231.667 OFFCURVE",
"878 228 OFFCURVE",
"878 218 CURVE SMOOTH",
"878 48 LINE SMOOTH",
"878 40.667 OFFCURVE",
"874.667 35.667 OFFCURVE",
"868 33 CURVE",
"830 20.333 OFFCURVE",
"788.5 9.833 OFFCURVE",
"743.5 1.5 CURVE SMOOTH",
"698.5 -6.833 OFFCURVE",
"654 -12.667 OFFCURVE",
"610 -16 CURVE",
"610 -16 LINE"
);
},
{
closed = 1;
nodes = (
"484.667 1184.333 OFFCURVE",
"475.333 1184.333 OFFCURVE",
"468 1189 CURVE SMOOTH",
"460.667 1193.667 OFFCURVE",
"457 1201.667 OFFCURVE",
"457 1213 CURVE SMOOTH",
"457 1337 LINE SMOOTH",
"457 1355.667 OFFCURVE",
"465.333 1368.333 OFFCURVE",
"482 1375 CURVE",
"516 1390.333 OFFCURVE",
"552.333 1404.833 OFFCURVE",
"591 1418.5 CURVE SMOOTH",
"629.667 1432.167 OFFCURVE",
"670.667 1445.333 OFFCURVE",
"714 1458 CURVE",
"719.333 1459.333 OFFCURVE",
"723.167 1458.833 OFFCURVE",
"725.5 1456.5 CURVE SMOOTH",
"727.833 1454.167 OFFCURVE",
"729 1451 OFFCURVE",
"729 1447 CURVE SMOOTH",
"729 1288 LINE SMOOTH",
"729 1280 OFFCURVE",
"725.333 1275 OFFCURVE",
"718 1273 CURVE SMOOTH",
"631.333 1246.333 OFFCURVE",
"557.333 1218.333 OFFCURVE",
"496 1189 CURVE",
"496 1189 LINE"
);
}
);
width = 908;
}
);
note = "four-ar";
unicode = 0664;
},
{
glyphname = "five-ar";
layers = (
{
layerId = "C0C2D967-6C35-4E4E-AAA8-D02C1745AD4B";
paths = (
{
closed = 1;
nodes = (
"341.333 198.333 OFFCURVE",
"250.333 245.667 OFFCURVE",
"187 327 CURVE SMOOTH",
"123.667 408.333 OFFCURVE",
"92 518.667 OFFCURVE",
"92 658 CURVE SMOOTH",
"92 760 OFFCURVE",
"107.167 855.667 OFFCURVE",
"137.5 945 CURVE SMOOTH",
"167.833 1034.333 OFFCURVE",
"210.333 1109.833 OFFCURVE",
"265 1171.5 CURVE SMOOTH",
"319.667 1233.167 OFFCURVE",
"384 1273.333 OFFCURVE",
"458 1292 CURVE SMOOTH",
"482 1298.667 OFFCURVE",
"494 1288.667 OFFCURVE",
"494 1262 CURVE SMOOTH",
"494 1124 LINE SMOOTH",
"494 1114.667 OFFCURVE",
"491.833 1107.167 OFFCURVE",
"487.5 1101.5 CURVE SMOOTH",
"483.167 1095.833 OFFCURVE",
"476.333 1091 OFFCURVE",
"467 1087 CURVE SMOOTH",
"424.333 1069 OFFCURVE",
"387.333 1038.667 OFFCURVE",
"356 996 CURVE SMOOTH",
"324.667 953.333 OFFCURVE",
"300.5 903.5 OFFCURVE",
"283.5 846.5 CURVE SMOOTH",
"266.5 789.5 OFFCURVE",
"258 730.667 OFFCURVE",
"258 670 CURVE SMOOTH",
"258 589.333 OFFCURVE",
"275.5 524.667 OFFCURVE",
"310.5 476 CURVE SMOOTH",
"345.5 427.333 OFFCURVE",
"396.333 397.333 OFFCURVE",
"463 386 CURVE",
"473 384.667 OFFCURVE",
"480.667 381 OFFCURVE",
"486 375 CURVE SMOOTH",
"491.333 369 OFFCURVE",
"494 361 OFFCURVE",
"494 351 CURVE SMOOTH",
"494 216 LINE SMOOTH",
"494 193.333 OFFCURVE",
"482.667 183 OFFCURVE",
"460 185 CURVE",
"460 185 LINE"
);
},
{
closed = 1;
nodes = (
"585.667 183.667 OFFCURVE",
"574 194 OFFCURVE",
"574 218 CURVE SMOOTH",
"574 353 LINE SMOOTH",
"574 363 OFFCURVE",
"576.5 371 OFFCURVE",
"581.5 377 CURVE SMOOTH",
"586.5 383 OFFCURVE",
"594 387 OFFCURVE",
"604 389 CURVE SMOOTH",
"670 402.333 OFFCURVE",
"720.833 434.833 OFFCURVE",
"756.5 486.5 CURVE SMOOTH",
"792.167 538.167 OFFCURVE",
"810 607.333 OFFCURVE",
"810 694 CURVE SMOOTH",
"810 756 OFFCURVE",
"801.833 815.167 OFFCURVE",
"785.5 871.5 CURVE SMOOTH",
"769.167 927.833 OFFCURVE",
"745.5 976 OFFCURVE",
"714.5 1016 CURVE SMOOTH",
"683.5 1056 OFFCURVE",
"646.333 1082.333 OFFCURVE",
"603 1095 CURVE",
"593.667 1098.333 OFFCURVE",
"586.5 1102.667 OFFCURVE",
"581.5 1108 CURVE SMOOTH",
"576.5 1113.333 OFFCURVE",
"574 1121 OFFCURVE",
"574 1131 CURVE SMOOTH",
"574 1267 LINE SMOOTH",
"574 1291.667 OFFCURVE",
"585.667 1302 OFFCURVE",
"609 1298 CURVE SMOOTH",
"685 1284 OFFCURVE",
"750.333 1247.333 OFFCURVE",
"805 1188 CURVE SMOOTH",
"859.667 1128.667 OFFCURVE",
"901.833 1054.833 OFFCURVE",
"931.5 966.5 CURVE SMOOTH",
"961.167 878.167 OFFCURVE",
"976 783 OFFCURVE",
"976 681 CURVE SMOOTH",
"976 537 OFFCURVE",
"944.167 422.667 OFFCURVE",
"880.5 338 CURVE SMOOTH",
"816.833 253.333 OFFCURVE",
"726.333 203 OFFCURVE",
"609 187 CURVE",
"609 187 LINE"
);
}
);
width = 1068;
}
);
note = "five-ar";
unicode = 0665;
},
{
glyphname = "six-ar";
layers = (
{
layerId = "C0C2D967-6C35-4E4E-AAA8-D02C1745AD4B";
paths = (
{
closed = 1;
nodes = (
"677.667 0 OFFCURVE",
"667 10.667 OFFCURVE",
"665 32 CURVE SMOOTH",
"514 1409 LINE SMOOTH",
"512 1431.667 OFFCURVE",
"522 1443 OFFCURVE",
"544 1443 CURVE SMOOTH",
"650 1443 LINE SMOOTH",
"669.333 1443 OFFCURVE",
"680 1434 OFFCURVE",
"682 1416 CURVE SMOOTH",
"834 32 LINE SMOOTH",
"836 10.667 OFFCURVE",
"826 0 OFFCURVE",
"804 0 CURVE SMOOTH",
"697 0 LINE",
"697 0 LINE SMOOTH"
);
},
{
closed = 1;
nodes = (
"11 1243 OFFCURVE",
"0 1254 OFFCURVE",
"0 1276 CURVE SMOOTH",
"0 1410 LINE SMOOTH",
"0 1432 OFFCURVE",
"11 1443 OFFCURVE",
"33 1443 CURVE SMOOTH",
"398 1443 LINE SMOOTH",
"418.667 1443 OFFCURVE",
"430 1432.667 OFFCURVE",
"432 1412 CURVE SMOOTH",
"447 1278 LINE SMOOTH",
"449 1254.667 OFFCURVE",
"438.667 1243 OFFCURVE",
"416 1243 CURVE SMOOTH",
"33 1243 LINE",
"33 1243 LINE SMOOTH"
);
}
);
width = 940;
}
);
note = "six-ar";
unicode = 0666;
},
{
glyphname = "seven-ar";
layers = (
{
layerId = "C0C2D967-6C35-4E4E-AAA8-D02C1745AD4B";
paths = (
{
closed = 1;
nodes = (
"442.667 0 OFFCURVE",
"430.667 9.667 OFFCURVE",
"426 29 CURVE SMOOTH",
"384.667 197.667 OFFCURVE",
"341.833 361.833 OFFCURVE",
"297.5 521.5 CURVE SMOOTH",
"253.167 681.167 OFFCURVE",
"209.333 834.833 OFFCURVE",
"166 982.5 CURVE SMOOTH",
"122.667 1130.167 OFFCURVE",
"80.667 1270.333 OFFCURVE",
"40 1403 CURVE",
"36.667 1415.667 OFFCURVE",
"37.333 1425.5 OFFCURVE",
"42 1432.5 CURVE SMOOTH",
"46.667 1439.5 OFFCURVE",
"55 1443 OFFCURVE",
"67 1443 CURVE SMOOTH",
"164 1443 LINE SMOOTH",
"186.667 1443 OFFCURVE",
"201 1432.333 OFFCURVE",
"207 1411 CURVE SMOOTH",
"237 1314.333 OFFCURVE",
"268.5 1210.667 OFFCURVE",
"301.5 1100 CURVE SMOOTH",
"334.5 989.333 OFFCURVE",
"368 874.5 OFFCURVE",
"402 755.5 CURVE SMOOTH",
"436 636.5 OFFCURVE",
"469.333 516.333 OFFCURVE",
"502 395 CURVE SMOOTH",
"534.667 273.667 OFFCURVE",
"565 154.333 OFFCURVE",
"593 37 CURVE SMOOTH",
"599.667 12.333 OFFCURVE",
"590 0 OFFCURVE",
"564 0 CURVE SMOOTH",
"462 0 LINE",
"462 0 LINE SMOOTH"
);
},
{
closed = 1;
nodes = (
"651 170 OFFCURVE",
"641.167 204.167 OFFCURVE",
"631.5 238.5 CURVE SMOOTH",
"621.833 272.833 OFFCURVE",
"611.667 308.333 OFFCURVE",
"601 345 CURVE SMOOTH",
"595.667 365 OFFCURVE",
"595.667 385 OFFCURVE",
"601 405 CURVE SMOOTH",
"614.333 457.667 OFFCURVE",
"631.5 522.167 OFFCURVE",
"652.5 598.5 CURVE SMOOTH",
"673.5 674.833 OFFCURVE",
"697.333 758.167 OFFCURVE",
"724 848.5 CURVE SMOOTH",
"750.667 938.833 OFFCURVE",
"778.5 1032 OFFCURVE",
"807.5 1128 CURVE SMOOTH",
"836.5 1224 OFFCURVE",
"865 1318.333 OFFCURVE",
"893 1411 CURVE SMOOTH",
"899.667 1432.333 OFFCURVE",
"914 1443 OFFCURVE",
"936 1443 CURVE SMOOTH",
"1033 1443 LINE SMOOTH",
"1045 1443 OFFCURVE",
"1053.333 1439.333 OFFCURVE",
"1058 1432 CURVE SMOOTH",
"1062.667 1424.667 OFFCURVE",
"1063.333 1415 OFFCURVE",
"1060 1403 CURVE SMOOTH",
"1021.333 1277 OFFCURVE",
"980.833 1142.333 OFFCURVE",
"938.5 999 CURVE SMOOTH",
"896.167 855.667 OFFCURVE",
"854.667 710.5 OFFCURVE",
"814 563.5 CURVE SMOOTH",
"773.333 416.5 OFFCURVE",
"736 274.333 OFFCURVE",
"702 137 CURVE SMOOTH",
"699.333 126.333 OFFCURVE",
"692.667 120.833 OFFCURVE",
"682 120.5 CURVE SMOOTH",
"671.333 120.167 OFFCURVE",
"664.333 125.333 OFFCURVE",
"661 136 CURVE",
"661 136 LINE"
);
}
);
width = 1111;
}
);
note = "seven-ar";
unicode = 0667;
},
{
glyphname = "eight-ar";
layers = (
{
layerId = "C0C2D967-6C35-4E4E-AAA8-D02C1745AD4B";
paths = (
{
closed = 1;
nodes = (
"672.333 1443 OFFCURVE",
"684.333 1433.333 OFFCURVE",
"689 1414 CURVE SMOOTH",
"731 1246 OFFCURVE",
"774 1082 OFFCURVE",
"818 922 CURVE SMOOTH",
"862 762 OFFCURVE",
"905.833 608.167 OFFCURVE",
"949.5 460.5 CURVE SMOOTH",
"993.167 312.833 OFFCURVE",
"1035 172.667 OFFCURVE",
"1075 40 CURVE",
"1078.333 27.333 OFFCURVE",
"1077.667 17.5 OFFCURVE",
"1073 10.5 CURVE SMOOTH",
"1068.333 3.5 OFFCURVE",
"1060 0 OFFCURVE",
"1048 0 CURVE SMOOTH",
"951 0 LINE SMOOTH",
"928.333 0 OFFCURVE",
"914 10.667 OFFCURVE",
"908 32 CURVE SMOOTH",
"878 128.667 OFFCURVE",
"846.5 232.333 OFFCURVE",
"813.5 343 CURVE SMOOTH",
"780.5 453.667 OFFCURVE",
"747 568.5 OFFCURVE",
"713 687.5 CURVE SMOOTH",
"679 806.5 OFFCURVE",
"645.667 926.667 OFFCURVE",
"613 1048 CURVE SMOOTH",
"580.333 1169.333 OFFCURVE",
"550 1288.667 OFFCURVE",
"522 1406 CURVE SMOOTH",
"515.333 1430.667 OFFCURVE",
"525 1443 OFFCURVE",
"551 1443 CURVE SMOOTH",
"653 1443 LINE",
"653 1443 LINE"
);
},
{
closed = 1;
nodes = (
"464 1273 OFFCURVE",
"473.833 1239 OFFCURVE",
"483.5 1205 CURVE SMOOTH",
"493.167 1171 OFFCURVE",
"503.333 1135.333 OFFCURVE",
"514 1098 CURVE SMOOTH",
"519.333 1078 OFFCURVE",
"519.333 1058 OFFCURVE",
"514 1038 CURVE SMOOTH",
"501.333 985.333 OFFCURVE",
"484.333 920.833 OFFCURVE",
"463 844.5 CURVE SMOOTH",
"441.667 768.167 OFFCURVE",
"417.667 684.833 OFFCURVE",
"391 594.5 CURVE SMOOTH",
"364.333 504.167 OFFCURVE",
"336.5 411 OFFCURVE",
"307.5 315 CURVE SMOOTH",
"278.5 219 OFFCURVE",
"250 124.667 OFFCURVE",
"222 32 CURVE SMOOTH",
"215.333 10.667 OFFCURVE",
"201 0 OFFCURVE",
"179 0 CURVE SMOOTH",
"82 0 LINE SMOOTH",
"70 0 OFFCURVE",
"61.667 3.667 OFFCURVE",
"57 11 CURVE SMOOTH",
"52.333 18.333 OFFCURVE",
"51.667 28 OFFCURVE",
"55 40 CURVE SMOOTH",
"93.667 166 OFFCURVE",
"134.167 300.667 OFFCURVE",
"176.5 444 CURVE SMOOTH",
"218.833 587.333 OFFCURVE",
"260.333 732.5 OFFCURVE",
"301 879.5 CURVE SMOOTH",
"341.667 1026.5 OFFCURVE",
"379 1168.667 OFFCURVE",
"413 1306 CURVE SMOOTH",
"415.667 1316.667 OFFCURVE",
"422.333 1322.333 OFFCURVE",
"433 1323 CURVE SMOOTH",
"443.667 1323.667 OFFCURVE",
"450.667 1318.333 OFFCURVE",
"454 1307 CURVE",
"454 1307 LINE"
);
}
);
width = 1111;
}
);
note = "eight-ar";
unicode = 0668;
},
{
glyphname = "nine-ar";
layers = (
{
layerId = "C0C2D967-6C35-4E4E-AAA8-D02C1745AD4B";
paths = (
{
closed = 1;
nodes = (
"718.667 0 OFFCURVE",
"708 10.667 OFFCURVE",
"706 32 CURVE SMOOTH",
"611 940 LINE SMOOTH",
"603.667 1012 OFFCURVE",
"590.5 1072.167 OFFCURVE",
"571.5 1120.5 CURVE SMOOTH",
"552.5 1168.833 OFFCURVE",
"528 1205.333 OFFCURVE",
"498 1230 CURVE SMOOTH",
"468 1254.667 OFFCURVE",
"432.333 1267 OFFCURVE",
"391 1267 CURVE SMOOTH",
"346.333 1267 OFFCURVE",
"308.667 1254.5 OFFCURVE",
"278 1229.5 CURVE SMOOTH",
"247.333 1204.5 OFFCURVE",
"224.167 1174.333 OFFCURVE",
"208.5 1139 CURVE SMOOTH",
"192.833 1103.667 OFFCURVE",
"185 1070 OFFCURVE",
"185 1038 CURVE SMOOTH",
"185 988.667 OFFCURVE",
"203.167 951 OFFCURVE",
"239.5 925 CURVE SMOOTH",
"275.833 899 OFFCURVE",
"323.333 886 OFFCURVE",
"382 886 CURVE SMOOTH",
"421.333 886 OFFCURVE",
"460 891.333 OFFCURVE",
"498 902 CURVE SMOOTH",
"522 908.667 OFFCURVE",
"535 900.333 OFFCURVE",
"537 877 CURVE SMOOTH",
"550 748 LINE SMOOTH",
"552 727.333 OFFCURVE",
"544 714 OFFCURVE",
"526 708 CURVE SMOOTH",
"482 693.333 OFFCURVE",
"431.667 686 OFFCURVE",
"375 686 CURVE SMOOTH",
"263.667 686 OFFCURVE",
"177.5 716.5 OFFCURVE",
"116.5 777.5 CURVE SMOOTH",
"55.5 838.5 OFFCURVE",
"25 922 OFFCURVE",
"25 1028 CURVE SMOOTH",
"25 1108 OFFCURVE",
"41.167 1181.167 OFFCURVE",
"73.5 1247.5 CURVE SMOOTH",
"105.833 1313.833 OFFCURVE",
"150.667 1367 OFFCURVE",
"208 1407 CURVE SMOOTH",
"265.333 1447 OFFCURVE",
"330.667 1467 OFFCURVE",
"404 1467 CURVE SMOOTH",
"462 1467 OFFCURVE",
"516.333 1451.833 OFFCURVE",
"567 1421.5 CURVE SMOOTH",
"617.667 1391.167 OFFCURVE",
"661 1341.667 OFFCURVE",
"697 1273 CURVE SMOOTH",
"733 1204.333 OFFCURVE",
"757.333 1112 OFFCURVE",
"770 996 CURVE SMOOTH",
"875 32 LINE SMOOTH",
"877 10.667 OFFCURVE",
"867 0 OFFCURVE",
"845 0 CURVE SMOOTH",
"738 0 LINE",
"738 0 LINE SMOOTH"
);
}
);
width = 978;
}
);
note = "nine-ar";
unicode = 0669;
},
{
glyphname = "four-persian";
layers = (
{
layerId = "C0C2D967-6C35-4E4E-AAA8-D02C1745AD4B";
paths = (
{
closed = 1;
nodes = (
"285.333 0 OFFCURVE",
"274.667 10.667 OFFCURVE",
"272 32 CURVE SMOOTH",
"111 1409 LINE SMOOTH",
"108.333 1431.667 OFFCURVE",
"118.333 1443 OFFCURVE",
"141 1443 CURVE SMOOTH",
"247 1443 LINE SMOOTH",
"266.333 1443 OFFCURVE",
"277 1434 OFFCURVE",
"279 1416 CURVE SMOOTH",
"441 32 LINE SMOOTH",
"443.667 10.667 OFFCURVE",
"433.667 0 OFFCURVE",
"411 0 CURVE SMOOTH",
"304 0 LINE",
"304 0 LINE SMOOTH"
);
},
{
closed = 1;
nodes = (
"630 1117.333 OFFCURVE",
"619.167 1119.5 OFFCURVE",
"607.5 1122.5 CURVE SMOOTH",
"595.833 1125.5 OFFCURVE",
"584.333 1128.667 OFFCURVE",
"573 1132 CURVE SMOOTH",
"554.333 1138 OFFCURVE",
"542.667 1152.333 OFFCURVE",
"538 1175 CURVE",
"536.667 1183 OFFCURVE",
"535.5 1190.5 OFFCURVE",
"534.5 1197.5 CURVE SMOOTH",
"533.5 1204.5 OFFCURVE",
"533 1212.333 OFFCURVE",
"533 1221 CURVE SMOOTH",
"533 1281.667 OFFCURVE",
"559.167 1335.5 OFFCURVE",
"611.5 1382.5 CURVE SMOOTH",
"663.833 1429.5 OFFCURVE",
"737 1453 OFFCURVE",
"831 1453 CURVE SMOOTH",
"864.333 1453 OFFCURVE",
"898 1449.833 OFFCURVE",
"932 1443.5 CURVE SMOOTH",
"966 1437.167 OFFCURVE",
"998.667 1428 OFFCURVE",
"1030 1416 CURVE SMOOTH",
"1040.667 1412 OFFCURVE",
"1048.333 1406.333 OFFCURVE",
"1053 1399 CURVE SMOOTH",
"1057.667 1391.667 OFFCURVE",
"1060 1382.333 OFFCURVE",
"1060 1371 CURVE SMOOTH",
"1060 1260 LINE SMOOTH",
"1060 1237.333 OFFCURVE",
"1049 1229 OFFCURVE",
"1027 1235 CURVE SMOOTH",
"996.333 1243.667 OFFCURVE",
"964.667 1250.5 OFFCURVE",
"932 1255.5 CURVE SMOOTH",
"899.333 1260.5 OFFCURVE",
"868 1263 OFFCURVE",
"838 1263 CURVE SMOOTH",
"788 1263 OFFCURVE",
"749.333 1254.5 OFFCURVE",
"722 1237.5 CURVE SMOOTH",
"694.667 1220.5 OFFCURVE",
"681 1198.333 OFFCURVE",
"681 1171 CURVE SMOOTH",
"681 1166.333 OFFCURVE",
"681 1162.5 OFFCURVE",
"681 1159.5 CURVE SMOOTH",
"681 1156.5 OFFCURVE",
"681 1152.667 OFFCURVE",
"681 1148 CURVE SMOOTH",
"681 1135.333 OFFCURVE",
"677.167 1126.333 OFFCURVE",
"669.5 1121 CURVE SMOOTH",
"661.833 1115.667 OFFCURVE",
"652 1114 OFFCURVE",
"640 1116 CURVE",
"640 1116 LINE"
);
},
{
closed = 1;
nodes = (
"747 823 OFFCURVE",
"680.5 827.333 OFFCURVE",
"617.5 836 CURVE SMOOTH",
"554.5 844.667 OFFCURVE",
"496 863.333 OFFCURVE",
"442 892 CURVE SMOOTH",
"427.333 899.333 OFFCURVE",
"418.667 912.333 OFFCURVE",
"416 931 CURVE SMOOTH",
"398 1082 LINE SMOOTH",
"396.667 1093.333 OFFCURVE",
"400 1101 OFFCURVE",
"408 1105 CURVE SMOOTH",
"416 1109 OFFCURVE",
"425 1108.333 OFFCURVE",
"435 1103 CURVE SMOOTH",
"475 1083 OFFCURVE",
"514.5 1067.167 OFFCURVE",
"553.5 1055.5 CURVE SMOOTH",
"592.5 1043.833 OFFCURVE",
"634 1035.5 OFFCURVE",
"678 1030.5 CURVE SMOOTH",
"722 1025.5 OFFCURVE",
"771.667 1023 OFFCURVE",
"827 1023 CURVE SMOOTH",
"877 1023 OFFCURVE",
"924.167 1025.333 OFFCURVE",
"968.5 1030 CURVE SMOOTH",
"1012.833 1034.667 OFFCURVE",
"1052 1039.667 OFFCURVE",
"1086 1045 CURVE SMOOTH",
"1108 1048.333 OFFCURVE",
"1119 1039.333 OFFCURVE",
"1119 1018 CURVE SMOOTH",
"1119 894 LINE SMOOTH",
"1119 883.333 OFFCURVE",
"1116.667 874.5 OFFCURVE",
"1112 867.5 CURVE SMOOTH",
"1107.333 860.5 OFFCURVE",
"1098.667 855.333 OFFCURVE",
"1086 852 CURVE SMOOTH",
"1052.667 844 OFFCURVE",
"1011.5 837.167 OFFCURVE",
"962.5 831.5 CURVE SMOOTH",
"913.5 825.833 OFFCURVE",
"865 823 OFFCURVE",
"817 823 CURVE SMOOTH",
"817 823 LINE SMOOTH"
);
}
);
width = 1211;
}
);
note = "four-persian";
unicode = 06F4;
},
{
glyphname = "five-persian";
layers = (
{
layerId = "C0C2D967-6C35-4E4E-AAA8-D02C1745AD4B";
paths = (
{
closed = 1;
nodes = (
"321 0 OFFCURVE",
"269 16.667 OFFCURVE",
"227 50 CURVE SMOOTH",
"185 83.333 OFFCURVE",
"153.333 129.333 OFFCURVE",
"132 188 CURVE SMOOTH",
"110.667 246.667 OFFCURVE",
"100 313.667 OFFCURVE",
"100 389 CURVE SMOOTH",
"100 475 OFFCURVE",
"113 560.5 OFFCURVE",
"139 645.5 CURVE SMOOTH",
"165 730.5 OFFCURVE",
"201 813 OFFCURVE",
"247 893 CURVE SMOOTH",
"293 973 OFFCURVE",
"345.667 1048.333 OFFCURVE",
"405 1119 CURVE SMOOTH",
"419.667 1135.667 OFFCURVE",
"435 1137.333 OFFCURVE",
"451 1124 CURVE SMOOTH",
"463 1114.667 OFFCURVE",
"474.833 1105 OFFCURVE",
"486.5 1095 CURVE SMOOTH",
"498.167 1085 OFFCURVE",
"509.667 1074.667 OFFCURVE",
"521 1064 CURVE",
"537 1050 OFFCURVE",
"537.667 1034.333 OFFCURVE",
"523 1017 CURVE SMOOTH",
"468.333 953.667 OFFCURVE",
"421.333 888.5 OFFCURVE",
"382 821.5 CURVE SMOOTH",
"342.667 754.5 OFFCURVE",
"312.5 688.167 OFFCURVE",
"291.5 622.5 CURVE SMOOTH",
"270.5 556.833 OFFCURVE",
"260 494 OFFCURVE",
"260 434 CURVE SMOOTH",
"260 394 OFFCURVE",
"265.167 356.167 OFFCURVE",
"275.5 320.5 CURVE SMOOTH",
"285.833 284.833 OFFCURVE",
"302 255.833 OFFCURVE",
"324 233.5 CURVE SMOOTH",
"346 211.167 OFFCURVE",
"374.333 200 OFFCURVE",
"409 200 CURVE SMOOTH",
"442.333 200 OFFCURVE",
"468.333 209.667 OFFCURVE",
"487 229 CURVE SMOOTH",
"505.667 248.333 OFFCURVE",
"518.833 273.667 OFFCURVE",
"526.5 305 CURVE SMOOTH",
"534.167 336.333 OFFCURVE",
"538 370.333 OFFCURVE",
"538 407 CURVE SMOOTH",
"538 456 LINE SMOOTH",
"538 478 OFFCURVE",
"549 489 OFFCURVE",
"571 489 CURVE SMOOTH",
"655 489 LINE SMOOTH",
"677 489 OFFCURVE",
"688 478 OFFCURVE",
"688 456 CURVE SMOOTH",
"688 407 LINE SMOOTH",
"688 373.667 OFFCURVE",
"691 341.167 OFFCURVE",
"697 309.5 CURVE SMOOTH",
"703 277.833 OFFCURVE",
"715.167 251.667 OFFCURVE",
"733.5 231 CURVE SMOOTH",
"751.833 210.333 OFFCURVE",
"779.333 200 OFFCURVE",
"816 200 CURVE SMOOTH",
"850 200 OFFCURVE",
"877.333 210 OFFCURVE",
"898 230 CURVE SMOOTH",
"918.667 250 OFFCURVE",
"933.667 277 OFFCURVE",
"943 311 CURVE SMOOTH",
"952.333 345 OFFCURVE",
"957 382.667 OFFCURVE",
"957 424 CURVE SMOOTH",
"957 530.667 OFFCURVE",
"933.167 635 OFFCURVE",
"885.5 737 CURVE SMOOTH",
"837.833 839 OFFCURVE",
"772.667 936.167 OFFCURVE",
"690 1028.5 CURVE SMOOTH",
"607.333 1120.833 OFFCURVE",
"513.667 1205.333 OFFCURVE",
"409 1282 CURVE SMOOTH",
"396.333 1291.333 OFFCURVE",
"388.333 1301.833 OFFCURVE",
"385 1313.5 CURVE SMOOTH",
"381.667 1325.167 OFFCURVE",
"384.333 1337.667 OFFCURVE",
"393 1351 CURVE SMOOTH",
"436 1421 LINE SMOOTH",
"455.333 1451 OFFCURVE",
"478.333 1456.333 OFFCURVE",
"505 1437 CURVE SMOOTH",
"589.667 1376.333 OFFCURVE",
"669 1307.167 OFFCURVE",
"743 1229.5 CURVE SMOOTH",
"817 1151.833 OFFCURVE",
"882 1069.167 OFFCURVE",
"938 981.5 CURVE SMOOTH",
"994 893.833 OFFCURVE",
"1037.833 803.833 OFFCURVE",
"1069.5 711.5 CURVE SMOOTH",
"1101.167 619.167 OFFCURVE",
"1117 528 OFFCURVE",
"1117 438 CURVE SMOOTH",
"1117 352.667 OFFCURVE",
"1105.333 277 OFFCURVE",
"1082 211 CURVE SMOOTH",
"1058.667 145 OFFCURVE",
"1025.333 93.333 OFFCURVE",
"982 56 CURVE SMOOTH",
"938.667 18.667 OFFCURVE",
"886.667 0 OFFCURVE",
"826 0 CURVE SMOOTH",
"776 0 OFFCURVE",
"733.333 13.333 OFFCURVE",
"698 40 CURVE SMOOTH",
"662.667 66.667 OFFCURVE",
"637 101 OFFCURVE",
"621 143 CURVE SMOOTH",
"618.333 150.333 OFFCURVE",
"613.667 154 OFFCURVE",
"607 154 CURVE SMOOTH",
"600.333 154 OFFCURVE",
"595.333 150.333 OFFCURVE",
"592 143 CURVE SMOOTH",
"574 101 OFFCURVE",
"547.833 66.667 OFFCURVE",
"513.5 40 CURVE SMOOTH",
"479.167 13.333 OFFCURVE",
"435.667 0 OFFCURVE",
"383 0 CURVE SMOOTH",
"383 0 LINE SMOOTH"
);
}
);
width = 1197;
}
);
note = "five-persian";
unicode = 06F5;
},
{
glyphname = "six-persian";
layers = (
{
layerId = "C0C2D967-6C35-4E4E-AAA8-D02C1745AD4B";
paths = (
{
closed = 1;
nodes = (
"40.667 0 OFFCURVE",
"30.667 9.667 OFFCURVE",
"38 29 CURVE SMOOTH",
"67.333 110.333 OFFCURVE",
"105.5 196.667 OFFCURVE",
"152.5 288 CURVE SMOOTH",
"199.5 379.333 OFFCURVE",
"258.333 469.167 OFFCURVE",
"329 557.5 CURVE SMOOTH",
"399.667 645.833 OFFCURVE",
"485.167 727 OFFCURVE",
"585.5 801 CURVE SMOOTH",
"685.833 875 OFFCURVE",
"804 936 OFFCURVE",
"940 984 CURVE SMOOTH",
"952 988.667 OFFCURVE",
"961.5 988.5 OFFCURVE",
"968.5 983.5 CURVE SMOOTH",
"975.5 978.5 OFFCURVE",
"979 970 OFFCURVE",
"979 958 CURVE SMOOTH",
"979 845 LINE SMOOTH",
"979 827 OFFCURVE",
"970 814.333 OFFCURVE",
"952 807 CURVE",
"830 762.333 OFFCURVE",
"721.167 700.833 OFFCURVE",
"625.5 622.5 CURVE SMOOTH",
"529.833 544.167 OFFCURVE",
"447.333 454.167 OFFCURVE",
"378 352.5 CURVE SMOOTH",
"308.667 250.833 OFFCURVE",
"252 142.333 OFFCURVE",
"208 27 CURVE SMOOTH",
"201.333 9 OFFCURVE",
"188.667 0 OFFCURVE",
"170 0 CURVE SMOOTH",
"68 0 LINE",
"68 0 LINE SMOOTH"
);
},
{
closed = 1;
nodes = (
"292.333 771 OFFCURVE",
"238.333 813.333 OFFCURVE",
"197 872 CURVE SMOOTH",
"155.667 930.667 OFFCURVE",
"135 1000.667 OFFCURVE",
"135 1082 CURVE SMOOTH",
"135 1156.667 OFFCURVE",
"153.833 1222.833 OFFCURVE",
"191.5 1280.5 CURVE SMOOTH",
"229.167 1338.167 OFFCURVE",
"281 1383.667 OFFCURVE",
"347 1417 CURVE SMOOTH",
"413 1450.333 OFFCURVE",
"488.333 1467 OFFCURVE",
"573 1467 CURVE SMOOTH",
"607 1467 OFFCURVE",
"643 1464 OFFCURVE",
"681 1458 CURVE SMOOTH",
"719 1452 OFFCURVE",
"754 1443 OFFCURVE",
"786 1431 CURVE SMOOTH",
"808 1422.333 OFFCURVE",
"819 1406.667 OFFCURVE",
"819 1384 CURVE SMOOTH",
"819 1263 LINE SMOOTH",
"819 1237 OFFCURVE",
"806.667 1228 OFFCURVE",
"782 1236 CURVE SMOOTH",
"752 1246 OFFCURVE",
"718.167 1253.667 OFFCURVE",
"680.5 1259 CURVE SMOOTH",
"642.833 1264.333 OFFCURVE",
"608.667 1267 OFFCURVE",
"578 1267 CURVE SMOOTH",
"516.667 1267 OFFCURVE",
"464.833 1258.167 OFFCURVE",
"422.5 1240.5 CURVE SMOOTH",
"380.167 1222.833 OFFCURVE",
"348.333 1199 OFFCURVE",
"327 1169 CURVE SMOOTH",
"305.667 1139 OFFCURVE",
"295 1105.333 OFFCURVE",
"295 1068 CURVE SMOOTH",
"295 1016.667 OFFCURVE",
"314 974 OFFCURVE",
"352 940 CURVE SMOOTH",
"390 906 OFFCURVE",
"441.667 886 OFFCURVE",
"507 880 CURVE SMOOTH",
"517 879.333 OFFCURVE",
"522.833 875.167 OFFCURVE",
"524.5 867.5 CURVE SMOOTH",
"526.167 859.833 OFFCURVE",
"523.333 853.333 OFFCURVE",
"516 848 CURVE SMOOTH",
"498.667 835.333 OFFCURVE",
"480.5 820.833 OFFCURVE",
"461.5 804.5 CURVE SMOOTH",
"442.5 788.167 OFFCURVE",
"423.333 771.333 OFFCURVE",
"404 754 CURVE SMOOTH",
"389.333 741.333 OFFCURVE",
"374.333 738.333 OFFCURVE",
"359 745 CURVE",
"359 745 LINE"
);
}
);
width = 1033;
}
);
note = "six-persian";
unicode = 06F6;
},
{
glyphname = "four-persian.urdu";
layers = (
{
layerId = "C0C2D967-6C35-4E4E-AAA8-D02C1745AD4B";
paths = (
{
closed = 1;
nodes = (
"199 0 OFFCURVE",
"188.333 10.667 OFFCURVE",
"185 32 CURVE",
"97 766 LINE SMOOTH",
"86.333 853.333 OFFCURVE",
"79.167 918.5 OFFCURVE",
"75.5 961.5 CURVE SMOOTH",
"71.833 1004.5 OFFCURVE",
"70 1043 OFFCURVE",
"70 1077 CURVE SMOOTH",
"70 1201.667 OFFCURVE",
"99.833 1297.833 OFFCURVE",
"159.5 1365.5 CURVE SMOOTH",
"219.167 1433.167 OFFCURVE",
"298.667 1467 OFFCURVE",
"398 1467 CURVE SMOOTH",
"438.667 1467 OFFCURVE",
"477.667 1459.333 OFFCURVE",
"515 1444 CURVE SMOOTH",
"552.333 1428.667 OFFCURVE",
"586.333 1405.333 OFFCURVE",
"617 1374 CURVE SMOOTH",
"625 1366 OFFCURVE",
"628.833 1358.167 OFFCURVE",
"628.5 1350.5 CURVE SMOOTH",
"628.167 1342.833 OFFCURVE",
"625 1335 OFFCURVE",
"619 1327 CURVE SMOOTH",
"607.667 1311.667 OFFCURVE",
"596.833 1295.5 OFFCURVE",
"586.5 1278.5 CURVE SMOOTH",
"576.167 1261.5 OFFCURVE",
"567.333 1244 OFFCURVE",
"560 1226 CURVE",
"556.667 1218.667 OFFCURVE",
"551.333 1214.167 OFFCURVE",
"544 1212.5 CURVE SMOOTH",
"536.667 1210.833 OFFCURVE",
"529.667 1213.333 OFFCURVE",
"523 1220 CURVE SMOOTH",
"505.667 1236.667 OFFCURVE",
"488.5 1248.667 OFFCURVE",
"471.5 1256 CURVE SMOOTH",
"454.5 1263.333 OFFCURVE",
"433.333 1267 OFFCURVE",
"408 1267 CURVE SMOOTH",
"354.667 1267 OFFCURVE",
"313.5 1249 OFFCURVE",
"284.5 1213 CURVE SMOOTH",
"255.5 1177 OFFCURVE",
"241 1126.667 OFFCURVE",
"241 1062 CURVE SMOOTH",
"241 1023.333 OFFCURVE",
"243.167 982.333 OFFCURVE",
"247.5 939 CURVE SMOOTH",
"251.833 895.667 OFFCURVE",
"257.333 846 OFFCURVE",
"264 790 CURVE SMOOTH",
"354 32 LINE SMOOTH",
"356 10.667 OFFCURVE",
"346 0 OFFCURVE",
"324 0 CURVE SMOOTH",
"217 0 LINE",
"217 0 LINE SMOOTH"
);
},
{
closed = 1;
nodes = (
"603 960 OFFCURVE",
"592 971 OFFCURVE",
"592 993 CURVE SMOOTH",
"592 1073.667 OFFCURVE",
"608.833 1147.333 OFFCURVE",
"642.5 1214 CURVE SMOOTH",
"676.167 1280.667 OFFCURVE",
"723.5 1334.5 OFFCURVE",
"784.5 1375.5 CURVE SMOOTH",
"845.5 1416.5 OFFCURVE",
"917.333 1438.667 OFFCURVE",
"1000 1442 CURVE SMOOTH",
"1017.333 1442.667 OFFCURVE",
"1030.333 1438.667 OFFCURVE",
"1039 1430 CURVE SMOOTH",
"1047.667 1421.333 OFFCURVE",
"1052 1409 OFFCURVE",
"1052 1393 CURVE SMOOTH",
"1052 1291 LINE SMOOTH",
"1052 1259.667 OFFCURVE",
"1035.333 1243 OFFCURVE",
"1002 1241 CURVE SMOOTH",
"916 1235 OFFCURVE",
"851.167 1209.5 OFFCURVE",
"807.5 1164.5 CURVE SMOOTH",
"763.833 1119.5 OFFCURVE",
"742 1062.333 OFFCURVE",
"742 993 CURVE SMOOTH",
"742 971 OFFCURVE",
"731 960 OFFCURVE",
"709 960 CURVE SMOOTH",
"625 960 LINE",
"625 960 LINE SMOOTH"
);
}
);
width = 1097;
}
);
note = "four-persian.urdu";
},
{
glyphname = "seven-persian.urdu";
layers = (
{
layerId = "C0C2D967-6C35-4E4E-AAA8-D02C1745AD4B";
paths = (
{
closed = 1;
nodes = (
"395.667 10.333 OFFCURVE",
"320.333 29.333 OFFCURVE",
"261 60 CURVE SMOOTH",
"201.667 90.667 OFFCURVE",
"157.5 134 OFFCURVE",
"128.5 190 CURVE SMOOTH",
"99.5 246 OFFCURVE",
"85 315.333 OFFCURVE",
"85 398 CURVE SMOOTH",
"85 506 OFFCURVE",
"107.833 617.333 OFFCURVE",
"153.5 732 CURVE SMOOTH",
"199.167 846.667 OFFCURVE",
"263.667 962.833 OFFCURVE",
"347 1080.5 CURVE SMOOTH",
"430.333 1198.167 OFFCURVE",
"527.667 1314.667 OFFCURVE",
"639 1430 CURVE SMOOTH",
"655 1446.667 OFFCURVE",
"669.5 1452.333 OFFCURVE",
"682.5 1447 CURVE SMOOTH",
"695.5 1441.667 OFFCURVE",
"702 1427.667 OFFCURVE",
"702 1405 CURVE SMOOTH",
"702 1295 LINE SMOOTH",
"702 1282.333 OFFCURVE",
"699.833 1270.833 OFFCURVE",
"695.5 1260.5 CURVE SMOOTH",
"691.167 1250.167 OFFCURVE",
"682.667 1238.333 OFFCURVE",
"670 1225 CURVE SMOOTH",
"606 1153 OFFCURVE",
"547.833 1080.833 OFFCURVE",
"495.5 1008.5 CURVE SMOOTH",
"443.167 936.167 OFFCURVE",
"398.333 865 OFFCURVE",
"361 795 CURVE SMOOTH",
"323.667 725 OFFCURVE",
"295 657.667 OFFCURVE",
"275 593 CURVE SMOOTH",
"255 528.333 OFFCURVE",
"245 467.333 OFFCURVE",
"245 410 CURVE SMOOTH",
"245 341.333 OFFCURVE",
"266.333 291.5 OFFCURVE",
"309 260.5 CURVE SMOOTH",
"351.667 229.5 OFFCURVE",
"412 210.333 OFFCURVE",
"490 203 CURVE SMOOTH",
"511.333 201 OFFCURVE",
"522 189.667 OFFCURVE",
"522 169 CURVE SMOOTH",
"522 35 LINE SMOOTH",
"522 11.667 OFFCURVE",
"510.333 1 OFFCURVE",
"487 3 CURVE",
"487 3 LINE"
);
},
{
closed = 1;
nodes = (
"613.333 1 OFFCURVE",
"602 11.667 OFFCURVE",
"602 33 CURVE SMOOTH",
"602 167 LINE SMOOTH",
"602 189 OFFCURVE",
"613 200.333 OFFCURVE",
"635 201 CURVE SMOOTH",
"681 202.333 OFFCURVE",
"730.667 205.5 OFFCURVE",
"784 210.5 CURVE SMOOTH",
"837.333 215.5 OFFCURVE",
"885 221.667 OFFCURVE",
"927 229 CURVE SMOOTH",
"949 233 OFFCURVE",
"960 224 OFFCURVE",
"960 202 CURVE SMOOTH",
"960 67 LINE SMOOTH",
"960 48.333 OFFCURVE",
"949 36.667 OFFCURVE",
"927 32 CURVE SMOOTH",
"889.667 24 OFFCURVE",
"844.667 17.167 OFFCURVE",
"792 11.5 CURVE SMOOTH",
"739.333 5.833 OFFCURVE",
"687.333 2.333 OFFCURVE",
"636 1 CURVE SMOOTH",
"636 1 LINE SMOOTH"
);
}
);
width = 975;
}
);
note = "seven-persian.urdu";
},
{
glyphname = period;
layers = (
{
layerId = "C0C2D967-6C35-4E4E-AAA8-D02C1745AD4B";
paths = (
{
closed = 1;
nodes = (
"228 -10 OFFCURVE",
"201 1 OFFCURVE",
"179 23 CURVE SMOOTH",
"157 45 OFFCURVE",
"146 72 OFFCURVE",
"146 104 CURVE SMOOTH",
"146 136 OFFCURVE",
"157 163 OFFCURVE",
"179 185 CURVE SMOOTH",
"201 207 OFFCURVE",
"228 218 OFFCURVE",
"260 218 CURVE SMOOTH",
"292 218 OFFCURVE",
"319 207 OFFCURVE",
"341 185 CURVE SMOOTH",
"363 163 OFFCURVE",
"374 136 OFFCURVE",
"374 104 CURVE SMOOTH",
"374 72 OFFCURVE",
"363 45 OFFCURVE",
"341 23 CURVE SMOOTH",
"319 1 OFFCURVE",
"292 -10 OFFCURVE",
"260 -10 CURVE SMOOTH",
"260 -10 LINE SMOOTH"
);
}
);
width = 428;
}
);
note = period;
unicode = 002E;
},
{
glyphname = comma;
layers = (
{
layerId = "C0C2D967-6C35-4E4E-AAA8-D02C1745AD4B";
paths = (
{
closed = 1;
nodes = (
"53.667 -283 OFFCURVE",
"45 -271.667 OFFCURVE",
"49 -249 CURVE SMOOTH",
"126 178 LINE SMOOTH",
"129.333 196.667 OFFCURVE",
"141 206 OFFCURVE",
"161 206 CURVE SMOOTH",
"277 206 LINE SMOOTH",
"287.667 206 OFFCURVE",
"295.333 202.833 OFFCURVE",
"300 196.5 CURVE SMOOTH",
"304.667 190.167 OFFCURVE",
"305.333 181.333 OFFCURVE",
"302 170 CURVE SMOOTH",
"175 -257 LINE SMOOTH",
"170.333 -274.333 OFFCURVE",
"159 -283 OFFCURVE",
"141 -283 CURVE SMOOTH",
"75 -283 LINE",
"75 -283 LINE SMOOTH"
);
}
);
width = 440;
}
);
note = comma;
unicode = 002C;
},
{
glyphname = colon;
layers = (
{
layerId = "C0C2D967-6C35-4E4E-AAA8-D02C1745AD4B";
paths = (
{
closed = 1;
nodes = (
"182 726 OFFCURVE",
"155 737 OFFCURVE",
"133 759 CURVE SMOOTH",
"111 781 OFFCURVE",
"100 808 OFFCURVE",
"100 840 CURVE SMOOTH",
"100 872 OFFCURVE",
"111 899 OFFCURVE",
"133 921 CURVE SMOOTH",
"155 943 OFFCURVE",
"182 954 OFFCURVE",
"214 954 CURVE SMOOTH",
"246 954 OFFCURVE",
"273 943 OFFCURVE",
"295 921 CURVE SMOOTH",
"317 899 OFFCURVE",
"328 872 OFFCURVE",
"328 840 CURVE SMOOTH",
"328 808 OFFCURVE",
"317 781 OFFCURVE",
"295 759 CURVE SMOOTH",
"273 737 OFFCURVE",
"246 726 OFFCURVE",
"214 726 CURVE SMOOTH",
"214 726 LINE SMOOTH"
);
},
{
closed = 1;
nodes = (
"182 -10 OFFCURVE",
"155 1 OFFCURVE",
"133 23 CURVE SMOOTH",
"111 45 OFFCURVE",
"100 72 OFFCURVE",
"100 104 CURVE SMOOTH",
"100 136 OFFCURVE",
"111 163 OFFCURVE",
"133 185 CURVE SMOOTH",
"155 207 OFFCURVE",
"182 218 OFFCURVE",
"214 218 CURVE SMOOTH",
"246 218 OFFCURVE",
"273 207 OFFCURVE",
"295 185 CURVE SMOOTH",
"317 163 OFFCURVE",
"328 136 OFFCURVE",
"328 104 CURVE SMOOTH",
"328 72 OFFCURVE",
"317 45 OFFCURVE",
"295 23 CURVE SMOOTH",
"273 1 OFFCURVE",
"246 -10 OFFCURVE",
"214 -10 CURVE SMOOTH",
"214 -10 LINE SMOOTH"
);
}
);
width = 428;
}
);
note = colon;
unicode = 003A;
},
{
glyphname = slash;
layers = (
{
layerId = "C0C2D967-6C35-4E4E-AAA8-D02C1745AD4B";
paths = (
{
closed = 1;
nodes = (
"11.333 -175 OFFCURVE",
"2.667 -163.667 OFFCURVE",
"8 -141 CURVE SMOOTH",
"401 1592 LINE SMOOTH",
"405 1609.333 OFFCURVE",
"416.333 1618 OFFCURVE",
"435 1618 CURVE SMOOTH",
"539 1618 LINE SMOOTH",
"561.667 1618 OFFCURVE",
"570.333 1606.667 OFFCURVE",
"565 1584 CURVE SMOOTH",
"172 -149 LINE SMOOTH",
"168 -166.333 OFFCURVE",
"156.667 -175 OFFCURVE",
"138 -175 CURVE SMOOTH",
"34 -175 LINE",
"34 -175 LINE SMOOTH"
);
}
);
width = 572;
}
);
note = slash;
unicode = 002F;
},
{
glyphname = hyphen;
layers = (
{
layerId = "C0C2D967-6C35-4E4E-AAA8-D02C1745AD4B";
paths = (
{
closed = 1;
nodes = (
"727 641 LINE",
"151 641 LINE SMOOTH",
"129.667 641 OFFCURVE",
"119 652 OFFCURVE",
"119 674 CURVE SMOOTH",
"119 771 LINE SMOOTH",
"119 792.333 OFFCURVE",
"129.667 803 OFFCURVE",
"151 803 CURVE SMOOTH",
"727 803 LINE SMOOTH",
"748.333 803 OFFCURVE",
"759 792.333 OFFCURVE",
"759 771 CURVE SMOOTH",
"759 674 LINE SMOOTH",
"759 652 OFFCURVE",
"748.333 641 OFFCURVE",
"727 641 CURVE SMOOTH"
);
}
);
width = 878;
}
);
note = hyphen;
unicode = 002D;
},
{
glyphname = quotesingle;
layers = (
{
layerId = "C0C2D967-6C35-4E4E-AAA8-D02C1745AD4B";
paths = (
{
closed = 1;
nodes = (
"207.667 934 OFFCURVE",
"196.667 944.667 OFFCURVE",
"196 966 CURVE SMOOTH",
"178 1409 LINE SMOOTH",
"176.667 1431.667 OFFCURVE",
"187.667 1443 OFFCURVE",
"211 1443 CURVE SMOOTH",
"309 1443 LINE SMOOTH",
"332.333 1443 OFFCURVE",
"343.333 1431.667 OFFCURVE",
"342 1409 CURVE SMOOTH",
"324 966 LINE SMOOTH",
"323.333 944.667 OFFCURVE",
"312.333 934 OFFCURVE",
"291 934 CURVE SMOOTH",
"229 934 LINE",
"229 934 LINE SMOOTH"
);
}
);
width = 520;
}
);
note = quotesingle;
unicode = 0027;
},
{
glyphname = .notdef;
layers = (
{
layerId = "C0C2D967-6C35-4E4E-AAA8-D02C1745AD4B";
paths = (
{
closed = 1;
nodes = (
"100 -494 LINE",
"100 -210 LINE",
"1948 -210 LINE",
"1948 -494 LINE",
"100 -494 LINE"
);
},
{
closed = 1;
nodes = (
"100 -62 LINE",
"100 222 LINE",
"1948 222 LINE",
"1948 -62 LINE",
"100 -62 LINE"
);
},
{
closed = 1;
nodes = (
"100 370 LINE",
"100 654 LINE",
"1948 654 LINE",
"1948 370 LINE",
"100 370 LINE"
);
},
{
closed = 1;
nodes = (
"100 802 LINE",
"100 1086 LINE",
"1948 1086 LINE",
"1948 802 LINE",
"100 802 LINE"
);
},
{
closed = 1;
nodes = (
"100 1234 LINE",
"100 1518 LINE",
"1948 1518 LINE",
"1948 1234 LINE",
"100 1234 LINE"
);
},
{
closed = 1;
nodes = (
"100 1666 LINE",
"100 1950 LINE",
"1948 1950 LINE",
"1948 1666 LINE",
"100 1666 LINE"
);
}
);
width = 2048;
}
);
note = .notdef;
},
{
glyphname = degree;
layers = (
{
layerId = "C0C2D967-6C35-4E4E-AAA8-D02C1745AD4B";
paths = (
{
closed = 1;
nodes = (
"352.667 812 OFFCURVE",
"301.333 825.167 OFFCURVE",
"256 851.5 CURVE SMOOTH",
"210.667 877.833 OFFCURVE",
"175 913.667 OFFCURVE",
"149 959 CURVE SMOOTH",
"123 1004.333 OFFCURVE",
"110 1055.333 OFFCURVE",
"110 1112 CURVE SMOOTH",
"110 1113 LINE SMOOTH",
"110.667 1169.667 OFFCURVE",
"124 1220.5 OFFCURVE",
"150 1265.5 CURVE SMOOTH",
"176 1310.5 OFFCURVE",
"211.667 1346.167 OFFCURVE",
"257 1372.5 CURVE SMOOTH",
"302.333 1398.833 OFFCURVE",
"353.333 1412 OFFCURVE",
"410 1412 CURVE SMOOTH",
"466.667 1412 OFFCURVE",
"517.5 1398.833 OFFCURVE",
"562.5 1372.5 CURVE SMOOTH",
"607.5 1346.167 OFFCURVE",
"643.333 1310.5 OFFCURVE",
"670 1265.5 CURVE SMOOTH",
"696.667 1220.5 OFFCURVE",
"710 1169.667 OFFCURVE",
"710 1113 CURVE SMOOTH",
"710 1112 LINE SMOOTH",
"710 1055.333 OFFCURVE",
"696.833 1004.333 OFFCURVE",
"670.5 959 CURVE SMOOTH",
"644.167 913.667 OFFCURVE",
"608.333 877.833 OFFCURVE",
"563 851.5 CURVE SMOOTH",
"517.667 825.167 OFFCURVE",
"466.667 812 OFFCURVE",
"410 812 CURVE SMOOTH",
"410 812 LINE SMOOTH"
);
},
{
closed = 1;
nodes = (
"453.333 957 OFFCURVE",
"489.167 971.5 OFFCURVE",
"517.5 1000.5 CURVE SMOOTH",
"545.833 1029.5 OFFCURVE",
"560 1066.333 OFFCURVE",
"560 1111 CURVE SMOOTH",
"560 1112 LINE SMOOTH",
"560 1158 OFFCURVE",
"545.833 1195.333 OFFCURVE",
"517.5 1224 CURVE SMOOTH",
"489.167 1252.667 OFFCURVE",
"453.333 1267 OFFCURVE",
"410 1267 CURVE SMOOTH",
"369.333 1267 OFFCURVE",
"334.167 1252.667 OFFCURVE",
"304.5 1224 CURVE SMOOTH",
"274.833 1195.333 OFFCURVE",
"260 1158 OFFCURVE",
"260 1112 CURVE SMOOTH",
"260 1111 LINE SMOOTH",
"260 1066.333 OFFCURVE",
"274.667 1029.5 OFFCURVE",
"304 1000.5 CURVE SMOOTH",
"333.333 971.5 OFFCURVE",
"368.667 957 OFFCURVE",
"410 957 CURVE",
"410 957 LINE"
);
}
);
width = 820;
}
);
note = degree;
unicode = 00B0;
},
{
glyphname = plus;
layers = (
{
layerId = "C0C2D967-6C35-4E4E-AAA8-D02C1745AD4B";
paths = (
{
closed = 1;
nodes = (
"122.667 641 OFFCURVE",
"112 652 OFFCURVE",
"112 674 CURVE SMOOTH",
"112 771 LINE SMOOTH",
"112 792.333 OFFCURVE",
"122.667 803 OFFCURVE",
"144 803 CURVE SMOOTH",
"1095 803 LINE SMOOTH",
"1116.333 803 OFFCURVE",
"1127 792.333 OFFCURVE",
"1127 771 CURVE SMOOTH",
"1127 674 LINE SMOOTH",
"1127 652 OFFCURVE",
"1116.333 641 OFFCURVE",
"1095 641 CURVE SMOOTH",
"144 641 LINE",
"144 641 LINE SMOOTH"
);
},
{
closed = 1;
nodes = (
"549 227 OFFCURVE",
"538 238 OFFCURVE",
"538 260 CURVE SMOOTH",
"538 1184 LINE SMOOTH",
"538 1206 OFFCURVE",
"549 1217 OFFCURVE",
"571 1217 CURVE SMOOTH",
"668 1217 LINE SMOOTH",
"689.333 1217 OFFCURVE",
"700 1206 OFFCURVE",
"700 1184 CURVE SMOOTH",
"700 260 LINE SMOOTH",
"700 238 OFFCURVE",
"689.333 227 OFFCURVE",
"668 227 CURVE SMOOTH",
"571 227 LINE",
"571 227 LINE SMOOTH"
);
}
);
width = 1238;
}
);
note = plus;
unicode = 002B;
},
{
glyphname = minus;
layers = (
{
layerId = "C0C2D967-6C35-4E4E-AAA8-D02C1745AD4B";
paths = (
{
closed = 1;
nodes = (
"1082 641 LINE",
"156 641 LINE SMOOTH",
"134.667 641 OFFCURVE",
"124 652 OFFCURVE",
"124 674 CURVE SMOOTH",
"124 771 LINE SMOOTH",
"124 792.333 OFFCURVE",
"134.667 803 OFFCURVE",
"156 803 CURVE SMOOTH",
"1082 803 LINE SMOOTH",
"1103.333 803 OFFCURVE",
"1114 792.333 OFFCURVE",
"1114 771 CURVE SMOOTH",
"1114 674 LINE SMOOTH",
"1114 652 OFFCURVE",
"1103.333 641 OFFCURVE",
"1082 641 CURVE SMOOTH"
);
}
);
width = 1238;
}
);
note = minus;
unicode = 2212;
},
{
glyphname = percent;
layers = (
{
layerId = "C0C2D967-6C35-4E4E-AAA8-D02C1745AD4B";
paths = (
{
closed = 1;
nodes = (
"317.333 0 OFFCURVE",
"309 3.833 OFFCURVE",
"305 11.5 CURVE SMOOTH",
"301 19.167 OFFCURVE",
"302.333 28.667 OFFCURVE",
"309 40 CURVE",
"1193 1420 LINE",
"1201.667 1434.667 OFFCURVE",
"1215 1442 OFFCURVE",
"1233 1442 CURVE SMOOTH",
"1325 1443 LINE SMOOTH",
"1338.333 1443 OFFCURVE",
"1347.167 1439.167 OFFCURVE",
"1351.5 1431.5 CURVE SMOOTH",
"1355.833 1423.833 OFFCURVE",
"1354.333 1414.333 OFFCURVE",
"1347 1403 CURVE SMOOTH",
"462 22 LINE",
"453.333 7.333 OFFCURVE",
"440 0 OFFCURVE",
"422 0 CURVE SMOOTH",
"330 0 LINE",
"330 0 LINE SMOOTH"
);
},
{
closed = 1;
nodes = (
"250.333 750.333 OFFCURVE",
"193.5 788.333 OFFCURVE",
"152.5 851 CURVE SMOOTH",
"111.5 913.667 OFFCURVE",
"91 994.333 OFFCURVE",
"91 1093 CURVE SMOOTH",
"91 1094 LINE SMOOTH",
"91 1192 OFFCURVE",
"111.5 1272.333 OFFCURVE",
"152.5 1335 CURVE SMOOTH",
"193.5 1397.667 OFFCURVE",
"250.333 1435.667 OFFCURVE",
"323 1449 CURVE SMOOTH",
"339.667 1452.333 OFFCURVE",
"348 1445.333 OFFCURVE",
"348 1428 CURVE SMOOTH",
"348 1351 LINE SMOOTH",
"348 1344.333 OFFCURVE",
"346.5 1339 OFFCURVE",
"343.5 1335 CURVE SMOOTH",
"340.5 1331 OFFCURVE",
"336 1327.667 OFFCURVE",
"330 1325 CURVE SMOOTH",
"298 1310.333 OFFCURVE",
"273.333 1283.5 OFFCURVE",
"256 1244.5 CURVE SMOOTH",
"238.667 1205.5 OFFCURVE",
"230 1155.333 OFFCURVE",
"230 1094 CURVE SMOOTH",
"230 1093 LINE SMOOTH",
"230 1032.333 OFFCURVE",
"238.667 982.167 OFFCURVE",
"256 942.5 CURVE SMOOTH",
"273.333 902.833 OFFCURVE",
"298 875.667 OFFCURVE",
"330 861 CURVE SMOOTH",
"336 858.333 OFFCURVE",
"340.5 855 OFFCURVE",
"343.5 851 CURVE SMOOTH",
"346.5 847 OFFCURVE",
"348 841.667 OFFCURVE",
"348 835 CURVE SMOOTH",
"348 758 LINE SMOOTH",
"348 740.667 OFFCURVE",
"339.667 733.667 OFFCURVE",
"323 737 CURVE",
"323 737 LINE"
);
},
{
closed = 1;
nodes = (
"426.333 733.667 OFFCURVE",
"418 740.667 OFFCURVE",
"418 758 CURVE SMOOTH",
"418 835 LINE SMOOTH",
"418 841.667 OFFCURVE",
"419.5 847 OFFCURVE",
"422.5 851 CURVE SMOOTH",
"425.5 855 OFFCURVE",
"430 858.333 OFFCURVE",
"436 861 CURVE SMOOTH",
"468 875.667 OFFCURVE",
"492.667 902.833 OFFCURVE",
"510 942.5 CURVE SMOOTH",
"527.333 982.167 OFFCURVE",
"536 1032.333 OFFCURVE",
"536 1093 CURVE SMOOTH",
"536 1094 LINE SMOOTH",
"536 1154.667 OFFCURVE",
"527.333 1204.667 OFFCURVE",
"510 1244 CURVE SMOOTH",
"492.667 1283.333 OFFCURVE",
"468 1310.333 OFFCURVE",
"436 1325 CURVE SMOOTH",
"430 1327.667 OFFCURVE",
"425.5 1331 OFFCURVE",
"422.5 1335 CURVE SMOOTH",
"419.5 1339 OFFCURVE",
"418 1344.333 OFFCURVE",
"418 1351 CURVE SMOOTH",
"418 1428 LINE SMOOTH",
"418 1445.333 OFFCURVE",
"426.333 1452.333 OFFCURVE",
"443 1449 CURVE SMOOTH",
"516.333 1435.667 OFFCURVE",
"573.333 1397.667 OFFCURVE",
"614 1335 CURVE SMOOTH",
"654.667 1272.333 OFFCURVE",
"675 1192 OFFCURVE",
"675 1094 CURVE SMOOTH",
"675 1093 LINE SMOOTH",
"675 994.333 OFFCURVE",
"654.667 913.667 OFFCURVE",
"614 851 CURVE SMOOTH",
"573.333 788.333 OFFCURVE",
"516.333 750.333 OFFCURVE",
"443 737 CURVE",
"443 737 LINE"
);
},
{
closed = 1;
nodes = (
"1139.333 7.333 OFFCURVE",
"1082.5 45.333 OFFCURVE",
"1041.5 108 CURVE SMOOTH",
"1000.5 170.667 OFFCURVE",
"980 251.333 OFFCURVE",
"980 350 CURVE SMOOTH",
"980 351 LINE SMOOTH",
"980 449 OFFCURVE",
"1000.5 529.333 OFFCURVE",
"1041.5 592 CURVE SMOOTH",
"1082.5 654.667 OFFCURVE",
"1139.333 692.667 OFFCURVE",
"1212 706 CURVE SMOOTH",
"1228.667 709.333 OFFCURVE",
"1237 702.333 OFFCURVE",
"1237 685 CURVE SMOOTH",
"1237 608 LINE SMOOTH",
"1237 601.333 OFFCURVE",
"1235.5 596 OFFCURVE",
"1232.5 592 CURVE SMOOTH",
"1229.5 588 OFFCURVE",
"1225 584.667 OFFCURVE",
"1219 582 CURVE SMOOTH",
"1187 567.333 OFFCURVE",
"1162.333 540.5 OFFCURVE",
"1145 501.5 CURVE SMOOTH",
"1127.667 462.5 OFFCURVE",
"1119 412.333 OFFCURVE",
"1119 351 CURVE SMOOTH",
"1119 350 LINE SMOOTH",
"1119 289.333 OFFCURVE",
"1127.667 239.167 OFFCURVE",
"1145 199.5 CURVE SMOOTH",
"1162.333 159.833 OFFCURVE",
"1187 132.667 OFFCURVE",
"1219 118 CURVE SMOOTH",
"1225 115.333 OFFCURVE",
"1229.5 112 OFFCURVE",
"1232.5 108 CURVE SMOOTH",
"1235.5 104 OFFCURVE",
"1237 98.667 OFFCURVE",
"1237 92 CURVE SMOOTH",
"1237 15 LINE SMOOTH",
"1237 -2.333 OFFCURVE",
"1228.667 -9.333 OFFCURVE",
"1212 -6 CURVE",
"1212 -6 LINE"
);
},
{
closed = 1;
nodes = (
"1315.333 -9.333 OFFCURVE",
"1307 -2.333 OFFCURVE",
"1307 15 CURVE SMOOTH",
"1307 92 LINE SMOOTH",
"1307 98.667 OFFCURVE",
"1308.5 104 OFFCURVE",
"1311.5 108 CURVE SMOOTH",
"1314.5 112 OFFCURVE",
"1319 115.333 OFFCURVE",
"1325 118 CURVE SMOOTH",
"1357 132.667 OFFCURVE",
"1381.667 159.833 OFFCURVE",
"1399 199.5 CURVE SMOOTH",
"1416.333 239.167 OFFCURVE",
"1425 289.333 OFFCURVE",
"1425 350 CURVE SMOOTH",
"1425 351 LINE SMOOTH",
"1425 411.667 OFFCURVE",
"1416.333 461.667 OFFCURVE",
"1399 501 CURVE SMOOTH",
"1381.667 540.333 OFFCURVE",
"1357 567.333 OFFCURVE",
"1325 582 CURVE SMOOTH",
"1319 584.667 OFFCURVE",
"1314.5 588 OFFCURVE",
"1311.5 592 CURVE SMOOTH",
"1308.5 596 OFFCURVE",
"1307 601.333 OFFCURVE",
"1307 608 CURVE SMOOTH",
"1307 685 LINE SMOOTH",
"1307 702.333 OFFCURVE",
"1315.333 709.333 OFFCURVE",
"1332 706 CURVE SMOOTH",
"1405.333 692.667 OFFCURVE",
"1462.333 654.667 OFFCURVE",
"1503 592 CURVE SMOOTH",
"1543.667 529.333 OFFCURVE",
"1564 449 OFFCURVE",
"1564 351 CURVE SMOOTH",
"1564 350 LINE SMOOTH",
"1564 251.333 OFFCURVE",
"1543.667 170.667 OFFCURVE",
"1503 108 CURVE SMOOTH",
"1462.333 45.333 OFFCURVE",
"1405.333 7.333 OFFCURVE",
"1332 -6 CURVE",
"1332 -6 LINE"
);
}
);
width = 1655;
}
);
note = percent;
unicode = 0025;
},
{
glyphname = "percent-ar";
layers = (
{
layerId = "C0C2D967-6C35-4E4E-AAA8-D02C1745AD4B";
paths = (
{
closed = 1;
nodes = (
"122.333 0 OFFCURVE",
"113.833 3.833 OFFCURVE",
"109.5 11.5 CURVE SMOOTH",
"105.167 19.167 OFFCURVE",
"106.667 28.667 OFFCURVE",
"114 40 CURVE SMOOTH",
"998 1420 LINE",
"1006.667 1434.667 OFFCURVE",
"1020 1442 OFFCURVE",
"1038 1442 CURVE SMOOTH",
"1130 1443 LINE SMOOTH",
"1143.333 1443 OFFCURVE",
"1152.167 1439.167 OFFCURVE",
"1156.5 1431.5 CURVE SMOOTH",
"1160.833 1423.833 OFFCURVE",
"1159.333 1414.333 OFFCURVE",
"1152 1403 CURVE SMOOTH",
"267 22 LINE",
"258.333 7.333 OFFCURVE",
"245 0 OFFCURVE",
"227 0 CURVE SMOOTH",
"135 0 LINE",
"135 0 LINE SMOOTH"
);
},
{
closed = 1;
nodes = (
"238 1237 LINE",
"143 1333 LINE SMOOTH",
"130.333 1346.333 OFFCURVE",
"130.333 1359.333 OFFCURVE",
"143 1372 CURVE SMOOTH",
"238 1467 LINE SMOOTH",
"251.333 1480.333 OFFCURVE",
"264.667 1480.333 OFFCURVE",
"278 1467 CURVE SMOOTH",
"373 1371 LINE SMOOTH",
"387 1357 OFFCURVE",
"387 1343.667 OFFCURVE",
"373 1331 CURVE",
"278 1237 LINE SMOOTH",
"264 1223 OFFCURVE",
"250.667 1223 OFFCURVE",
"238 1237 CURVE"
);
},
{
closed = 1;
nodes = (
"987 -21 LINE",
"892 75 LINE SMOOTH",
"879.333 88.333 OFFCURVE",
"879.333 101.333 OFFCURVE",
"892 114 CURVE SMOOTH",
"987 209 LINE SMOOTH",
"1000.333 222.333 OFFCURVE",
"1013.667 222.333 OFFCURVE",
"1027 209 CURVE SMOOTH",
"1122 113 LINE SMOOTH",
"1134.667 100.333 OFFCURVE",
"1134.667 87 OFFCURVE",
"1122 73 CURVE",
"1027 -21 LINE SMOOTH",
"1013 -35 OFFCURVE",
"999.667 -35 OFFCURVE",
"987 -21 CURVE"
);
}
